<?xml version="1.0" encoding="UTF-8" ?>
<!DOCTYPE svg PUBLIC "-//W3C//DTD SVG 1.1//EN" "http://www.w3.org/Graphics/SVG/1.1/DTD/svg11.dtd">
<svg width="1832pt" height="404pt" viewBox="0 0 1832 404" version="1.1" xmlns="http://www.w3.org/2000/svg">
<g id="#fffffffd">
<path fill="#ffffff" opacity="1.00" d=" M 41.99 0.00 L 251.01 0.00 C 250.93 20.32 251.02 40.63 251.02 60.95 C 264.67 60.98 278.32 61.01 291.98 61.04 C 292.06 131.04 291.91 201.03 292.08 271.02 C 292.00 305.30 269.21 337.61 237.95 350.97 C 215.76 360.90 190.92 358.95 167.28 358.80 C 166.98 340.86 166.89 322.92 166.99 304.98 C 153.29 304.98 139.59 304.99 125.90 305.01 C 124.88 322.61 124.77 340.25 125.00 357.87 C 105.66 358.28 85.74 360.69 66.88 355.20 C 44.14 348.72 23.85 333.49 12.19 312.80 C 5.09 301.57 2.12 288.38 0.00 275.43 L 0.00 61.02 C 13.99 61.00 27.98 60.99 41.98 60.98 C 41.98 40.65 42.07 20.33 41.99 0.00 M 80.01 41.01 C 80.03 60.00 79.97 78.99 79.99 97.98 C 66.33 97.97 52.67 98.02 39.01 98.01 C 39.02 154.02 38.94 210.02 39.02 266.03 C 37.98 285.69 49.27 305.32 67.02 313.92 C 74.35 318.20 82.86 319.45 91.15 320.47 C 89.13 294.27 85.80 268.18 83.77 241.97 C 94.43 238.85 105.08 235.70 115.82 232.89 C 113.92 222.68 112.92 212.34 111.97 202.01 C 134.86 201.97 157.74 202.00 180.63 201.96 C 179.01 212.29 178.06 222.71 176.94 233.10 C 187.59 236.05 198.29 238.80 208.92 241.85 C 206.01 267.95 203.54 294.11 201.24 320.27 C 208.26 319.57 215.26 318.32 221.91 315.92 C 233.36 311.30 242.47 301.90 248.08 291.05 C 254.07 279.72 253.81 266.45 254.04 254.01 C 254.04 207.34 253.87 160.66 254.12 113.99 C 253.08 109.08 255.77 102.46 252.67 98.28 C 239.46 97.53 226.22 98.05 213.01 98.02 C 213.03 79.01 212.97 60.01 213.00 41.01 C 168.67 40.98 124.34 40.99 80.01 41.01 Z" />
<path fill="#ffffff" opacity="1.00" d=" M 474.02 35.03 C 492.67 34.97 511.33 34.96 529.98 35.02 C 529.94 98.35 530.16 161.69 529.89 225.01 C 528.82 245.29 526.70 265.92 518.85 284.85 C 513.02 299.07 502.60 311.67 488.95 318.95 C 469.57 330.20 446.33 330.74 424.54 330.72 C 403.15 330.59 382.24 321.93 366.79 307.21 C 354.01 296.65 345.65 281.72 341.09 265.96 C 335.18 247.24 337.30 227.33 337.02 208.03 C 355.32 207.95 373.63 207.97 391.94 208.03 C 392.02 224.83 390.86 242.27 396.47 258.42 C 401.35 273.10 417.22 281.49 432.04 281.96 C 445.47 283.57 460.77 277.59 466.97 264.98 C 469.94 260.18 471.62 254.65 471.95 249.02 C 474.77 222.78 473.91 196.34 474.00 170.00 C 474.02 125.01 473.96 80.02 474.02 35.03 Z" />
<path fill="#ffffff" opacity="1.00" d=" M 1749.07 55.03 C 1766.03 54.96 1783.01 54.96 1799.99 55.02 C 1799.91 75.31 1800.07 95.59 1800.01 115.88 C 1810.66 115.97 1821.32 116.13 1832.00 116.58 L 1832.00 156.97 C 1821.22 157.01 1810.45 157.01 1799.70 157.00 C 1798.52 182.65 1799.39 208.34 1798.17 233.99 C 1798.03 248.64 1796.82 263.45 1799.13 277.98 C 1799.46 281.56 1802.08 284.45 1805.33 285.66 C 1813.52 288.71 1822.40 287.90 1830.99 288.38 C 1831.01 301.36 1831.00 314.35 1831.04 327.34 C 1810.51 327.27 1789.03 331.23 1769.14 324.79 C 1753.63 319.60 1747.65 301.90 1747.15 286.95 C 1747.28 243.65 1745.43 200.38 1745.99 157.08 C 1735.94 157.02 1725.91 157.00 1715.91 156.94 C 1716.01 143.64 1716.56 130.36 1717.13 117.08 C 1727.36 117.01 1737.60 117.00 1747.86 116.93 C 1748.27 96.29 1749.26 75.67 1749.07 55.03 Z" />
<path fill="#ffffff" opacity="1.00" d=" M 966.85 110.60 C 984.67 109.67 1003.00 110.83 1019.84 117.16 C 1033.33 122.33 1045.24 132.05 1052.16 144.80 C 1057.11 154.85 1059.27 166.00 1061.28 176.94 C 1047.25 177.05 1033.22 177.05 1019.20 176.94 C 1015.33 169.79 1011.99 161.77 1004.94 157.10 C 998.31 151.67 989.46 150.81 981.33 149.62 C 970.86 148.63 959.94 149.23 950.09 153.13 C 943.99 156.20 936.96 160.97 936.43 168.43 C 934.23 176.46 940.37 183.53 947.04 186.96 C 963.60 196.68 983.16 197.95 1001.65 201.20 C 1019.27 203.88 1037.40 208.18 1051.89 219.15 C 1058.31 223.77 1063.56 230.00 1066.58 237.35 C 1071.42 248.46 1070.18 260.90 1069.49 272.65 C 1067.74 284.90 1062.60 296.96 1053.78 305.79 C 1042.99 317.60 1027.25 323.38 1012.11 327.12 C 990.33 331.25 967.70 332.67 945.84 328.29 C 929.96 325.46 914.01 319.18 902.71 307.29 C 890.68 295.45 885.22 278.74 883.29 262.34 C 899.37 261.84 915.42 263.33 931.51 263.14 C 934.31 273.59 940.55 283.80 951.09 287.90 C 966.45 293.70 984.19 295.32 999.92 289.93 C 1012.36 286.01 1024.23 273.55 1020.28 259.71 C 1016.57 251.92 1007.64 248.74 1000.19 245.69 C 982.10 240.12 963.07 238.58 944.67 234.34 C 929.59 230.17 914.00 225.48 901.77 215.24 C 893.94 208.62 888.26 199.38 886.77 189.14 C 884.96 175.70 885.11 161.09 891.96 148.97 C 896.95 138.52 905.78 130.45 915.56 124.51 C 931.06 115.50 949.16 111.96 966.85 110.60 Z" />
<path fill="#ffffff" opacity="1.00" d=" M 1173.27 116.20 C 1189.08 109.50 1206.81 110.54 1223.32 113.74 C 1244.23 117.51 1263.04 130.66 1274.56 148.40 C 1288.46 170.15 1293.76 196.46 1293.11 222.01 C 1293.29 248.56 1287.26 275.88 1271.95 297.95 C 1255.44 323.75 1222.45 336.73 1192.62 331.33 C 1181.69 329.99 1170.76 326.83 1161.89 320.08 C 1154.58 314.43 1148.14 307.79 1141.35 301.56 C 1138.74 335.30 1140.53 369.18 1139.98 402.98 C 1137.17 403.33 1134.24 403.67 1131.51 404.00 L 1116.54 404.00 C 1107.36 403.49 1098.19 403.03 1089.03 402.77 C 1088.98 307.52 1088.98 212.27 1089.02 117.02 C 1105.61 116.97 1122.21 116.95 1138.81 117.01 C 1139.07 126.72 1139.47 136.44 1140.08 146.13 C 1149.06 134.29 1158.90 121.63 1173.27 116.20 M 1180.44 153.56 C 1169.61 155.77 1158.70 161.07 1152.86 170.88 C 1146.15 181.81 1143.27 194.61 1141.27 207.13 C 1140.39 225.05 1140.00 243.89 1147.28 260.70 C 1152.61 274.71 1164.47 286.79 1179.64 289.41 C 1192.77 291.06 1207.33 290.18 1218.74 282.75 C 1226.03 278.17 1230.20 270.28 1233.42 262.55 C 1240.90 242.38 1242.16 220.28 1238.85 199.13 C 1236.25 185.90 1231.20 172.32 1220.71 163.31 C 1214.97 159.05 1208.71 155.02 1201.66 153.43 C 1194.61 152.55 1187.44 152.68 1180.44 153.56 Z" />
<path fill="#ffffff" opacity="1.00" d=" M 589.09 128.12 C 611.76 112.94 640.46 111.56 666.84 112.27 C 687.16 113.64 709.71 117.00 724.33 132.68 C 735.68 144.43 738.13 161.44 738.79 177.03 C 739.90 226.99 737.34 277.08 740.91 326.96 C 724.01 327.05 707.11 327.04 690.22 326.95 C 689.47 318.84 688.69 310.73 687.23 302.72 C 661.48 330.97 616.60 341.58 581.98 324.02 C 562.47 314.61 547.98 294.13 548.88 272.01 C 547.00 253.13 556.34 233.44 572.97 223.97 C 599.67 207.39 632.16 206.26 662.11 200.12 C 673.62 198.19 686.33 190.21 687.58 177.62 C 688.30 171.59 686.30 165.40 681.81 161.22 C 671.02 151.68 655.78 150.74 642.12 150.28 C 634.62 150.07 627.54 153.17 621.77 157.78 C 615.13 164.72 611.82 173.87 608.81 182.79 C 592.08 183.47 575.24 184.64 558.62 181.95 C 558.36 160.28 570.88 139.44 589.09 128.12 M 658.01 234.00 C 642.87 237.03 626.44 238.34 613.37 247.38 C 608.54 251.57 603.18 256.65 602.41 263.33 C 601.49 276.45 610.32 290.73 623.63 293.51 C 642.56 298.52 665.15 293.47 677.69 277.70 C 690.71 262.62 690.77 241.00 687.45 222.44 C 678.21 227.56 668.58 232.43 658.01 234.00 Z" />
<path fill="#ffffff" opacity="1.00" d=" M 1352.57 127.53 C 1384.34 107.91 1427.50 105.50 1459.77 125.23 C 1483.66 139.98 1498.13 166.42 1503.36 193.47 C 1505.91 208.13 1508.19 223.20 1506.05 238.07 C 1457.28 235.95 1408.44 237.41 1359.64 237.03 C 1360.49 255.26 1367.74 275.18 1384.21 284.79 C 1401.68 295.93 1426.12 291.83 1440.93 277.95 C 1446.19 273.44 1450.46 267.89 1454.32 262.16 C 1470.59 261.92 1486.88 261.90 1503.18 262.06 C 1498.75 274.60 1493.99 287.21 1485.93 297.94 C 1475.84 313.46 1458.60 322.64 1441.03 326.98 C 1427.35 330.33 1413.24 332.40 1399.13 331.81 C 1382.46 329.98 1365.64 325.08 1352.06 314.92 C 1326.78 297.20 1312.24 267.19 1309.12 236.96 C 1305.91 210.99 1310.96 184.19 1322.95 160.97 C 1329.51 147.41 1339.76 135.53 1352.57 127.53 M 1394.86 152.86 C 1387.66 154.72 1381.51 159.29 1375.75 163.77 C 1364.94 172.85 1362.46 187.65 1361.62 200.97 C 1392.65 201.10 1423.68 201.25 1454.70 199.92 C 1452.87 186.52 1450.09 171.87 1439.75 162.25 C 1427.62 151.34 1410.13 150.70 1394.86 152.86 Z" />
<path fill="#ffffff" opacity="1.00" d=" M 1578.97 119.95 C 1590.41 114.21 1603.43 112.86 1616.04 112.19 C 1632.89 111.40 1650.55 112.57 1665.96 120.07 C 1677.30 124.81 1686.63 133.20 1694.69 142.31 C 1705.69 156.06 1710.96 173.12 1714.83 190.01 C 1698.31 190.06 1681.79 190.06 1665.29 189.88 C 1661.75 178.75 1655.84 167.74 1645.90 161.13 C 1638.00 155.34 1627.81 154.28 1618.31 154.42 C 1610.39 154.76 1602.55 157.37 1596.37 162.42 C 1580.36 174.69 1573.69 195.51 1572.73 214.98 C 1570.53 238.73 1576.96 265.30 1595.84 281.15 C 1606.74 290.24 1622.12 290.35 1635.38 287.43 C 1643.29 285.19 1651.10 280.48 1654.89 272.93 C 1658.34 266.94 1660.78 260.38 1664.53 254.55 C 1666.22 251.68 1669.66 250.47 1672.99 251.11 C 1687.07 250.58 1701.18 251.07 1715.29 251.06 C 1711.39 276.01 1700.27 301.16 1679.18 316.18 C 1662.28 327.85 1641.15 331.26 1621.00 331.00 C 1591.18 331.40 1560.98 318.14 1542.66 294.31 C 1523.66 269.31 1519.29 236.46 1521.64 205.93 C 1522.50 191.03 1526.43 176.37 1533.06 163.01 C 1542.48 143.62 1559.80 129.18 1578.97 119.95 Z" />
<path fill="#ffffff" opacity="1.00" d=" M 842.98 118.98 C 854.91 112.34 868.74 112.63 881.98 112.95 C 882.02 129.03 882.05 145.12 881.98 161.21 C 866.37 162.41 849.00 160.36 835.08 169.15 C 818.02 178.87 812.33 199.73 811.25 218.03 C 810.55 255.00 811.26 291.99 810.98 328.98 C 793.46 328.21 775.42 331.28 758.28 326.55 C 759.37 309.39 758.95 292.18 759.01 275.00 C 759.00 222.34 758.98 169.68 759.01 117.02 C 775.66 116.96 792.31 116.97 808.97 117.03 C 808.97 128.47 808.91 139.93 809.20 151.38 C 819.14 139.41 827.81 124.93 842.98 118.98 Z" />
<path fill="#ffffff" opacity="1.00" d=" M 60.96 147.83 C 80.44 141.65 100.21 136.48 119.95 131.18 C 121.42 147.69 122.57 164.23 124.02 180.74 C 104.69 186.24 85.29 191.53 65.96 197.04 C 64.03 180.66 62.75 164.22 60.96 147.83 Z" />
<path fill="#ffffff" opacity="1.00" d=" M 172.48 131.20 C 192.39 136.24 212.05 142.18 231.79 147.85 C 229.98 164.24 228.31 180.64 226.82 197.06 C 207.53 191.62 188.25 186.17 168.92 180.89 C 168.92 164.26 171.10 147.75 172.48 131.20 Z" />
</g>
</svg>
