<?xml version="1.0" encoding="UTF-8" ?>
<!DOCTYPE svg PUBLIC "-//W3C//DTD SVG 1.1//EN" "http://www.w3.org/Graphics/SVG/1.1/DTD/svg11.dtd">
<svg width="853pt" height="853pt" viewBox="0 0 853 853" version="1.1" xmlns="http://www.w3.org/2000/svg">
<g id="#ffffffff">
<path fill="#ffffff" opacity="1.00" d=" M 189.82 99.00 C 190.05 72.60 189.28 46.18 190.57 19.81 C 348.10 19.86 505.63 19.82 663.17 19.83 C 663.29 33.90 662.85 47.98 663.51 62.03 C 663.49 93.72 663.51 125.42 663.50 157.11 C 672.98 157.71 682.49 157.45 691.98 157.50 C 699.33 157.45 706.69 157.69 714.04 157.18 C 728.42 157.14 742.80 157.18 757.18 157.16 C 757.15 186.78 757.18 216.39 757.17 246.00 C 757.32 264.67 756.82 283.35 757.52 302.01 C 757.49 373.67 757.49 445.33 757.51 517.00 C 756.83 539.31 757.31 561.66 757.17 583.99 C 757.00 610.33 758.18 636.87 753.93 662.99 C 743.29 723.13 703.52 776.98 649.74 805.70 C 621.37 821.14 589.31 829.74 557.02 830.47 C 529.18 830.55 501.33 830.47 473.49 830.51 C 473.48 790.07 473.56 749.62 473.45 709.18 C 442.24 709.16 411.03 709.17 379.81 709.17 C 379.20 744.09 379.63 779.03 379.50 813.96 C 379.64 819.43 379.15 824.92 379.87 830.37 C 358.25 829.65 336.64 830.71 315.03 830.50 C 305.70 830.40 296.34 830.84 287.04 829.95 C 245.68 826.81 205.43 810.87 173.11 784.90 C 145.78 763.11 124.24 734.20 111.01 701.86 C 104.17 684.99 99.16 667.26 97.52 649.09 C 94.86 621.49 96.13 593.74 95.83 566.07 C 95.57 550.03 96.32 534.02 96.16 517.99 C 96.17 432.01 96.16 346.03 96.17 260.05 C 95.46 225.77 96.01 191.46 95.82 157.16 C 127.26 157.16 158.71 157.17 190.16 157.16 C 190.03 137.77 190.50 118.37 189.82 99.00 M 275.82 111.50 C 275.85 154.73 275.83 197.96 275.84 241.18 C 252.88 241.14 229.92 241.19 206.97 241.16 C 199.27 240.64 191.55 240.89 183.83 240.83 C 183.84 329.57 183.84 418.30 183.84 507.04 C 183.70 524.36 184.17 541.70 183.49 559.01 C 183.52 578.68 183.49 598.34 183.50 618.00 C 183.35 630.05 183.99 642.23 187.06 653.92 C 191.13 670.21 198.73 685.63 209.28 698.70 C 231.43 726.56 266.72 743.17 302.23 743.18 C 298.93 698.01 293.10 653.06 289.50 607.92 C 288.15 594.09 286.23 580.29 285.80 566.40 C 309.69 559.90 333.24 552.00 357.51 546.93 C 354.61 523.36 351.55 499.79 349.05 476.17 C 400.88 476.13 452.71 476.20 504.54 476.14 C 501.32 499.65 498.86 523.25 496.20 546.83 C 520.13 553.06 543.90 559.95 567.91 565.93 C 564.96 598.65 561.79 631.36 558.75 664.07 C 556.38 690.45 552.88 716.74 551.47 743.20 C 572.33 743.03 593.38 737.98 611.40 727.29 C 641.30 709.42 663.27 678.09 668.08 643.41 C 670.76 618.70 669.73 593.79 669.50 569.00 C 669.48 459.72 669.53 350.45 669.47 241.17 C 651.34 241.30 633.19 240.84 615.07 241.52 C 602.65 241.60 590.24 241.42 577.83 241.17 C 577.18 198.07 577.64 154.94 577.49 111.82 C 572.35 111.85 567.20 111.95 562.07 111.55 C 543.04 111.26 524.00 111.91 504.99 111.16 C 484.99 111.20 464.99 111.13 444.99 111.19 C 436.00 111.78 426.98 111.39 417.97 111.50 C 402.30 111.35 386.62 111.85 370.97 111.16 C 339.25 111.26 307.53 110.92 275.82 111.50 Z" />
<path fill="#ffffff" opacity="1.00" d=" M 234.07 353.21 C 278.40 340.43 322.75 327.69 367.37 315.95 C 370.68 353.32 373.49 390.74 376.51 428.13 C 357.82 433.93 338.74 438.33 319.98 443.91 C 296.29 450.62 272.58 457.27 248.90 464.02 C 247.42 464.42 245.94 464.73 244.44 465.01 C 241.33 427.72 237.28 390.49 234.07 353.21 Z" />
<path fill="#ffffff" opacity="1.00" d=" M 486.22 315.73 C 530.86 328.08 575.48 340.55 619.97 353.44 C 617.96 366.51 617.20 379.72 615.90 392.87 C 613.40 416.75 611.15 440.65 609.26 464.58 C 606.91 464.76 604.65 464.00 602.43 463.37 C 560.89 451.24 519.13 439.92 477.45 428.29 C 479.13 390.69 483.39 353.26 486.22 315.73 Z" />
</g>
</svg>
