<?xml version="1.0" encoding="UTF-8"?>
<svg xmlns="http://www.w3.org/2000/svg" width="980" height="322" viewBox="0 0 980 322">
<style>
  .t { font-family: ui-sans-serif, system-ui, -apple-system, Segoe UI, Roboto, Arial; fill: #111; }
  .title { font-size: 20px; font-weight: 700; }
  .label { font-size: 13px; }
  .small { font-size: 12px; fill: #333; }
  .mono { font-family: ui-monospace, SFMono-Regular, Menlo, Monaco, Consolas, "Liberation Mono", "Courier New", monospace; }
</style>
<rect x="0" y="0" width="980" height="322" fill="#fff"/>
<text class="t title" x="20" y="38">Ablation: verdict distribution</text>
<text class="t small" x="20" y="62">Baseline vs AI-off (prod rules) vs AI-off (demo rules)</text>
<text class="t label" x="20" y="84" dominant-baseline="middle">Baseline (prod + AI) / malware <tspan class="small">(n=70)</tspan></text>
<rect x="310" y="74" width="650" height="20" fill="none" stroke="#ddd"/>
<rect x="310" y="74" width="650" height="20" fill="#c62828"/>
<text class="t small" x="635" y="84" text-anchor="middle" dominant-baseline="middle" fill="#fff">70</text>
<text class="t label" x="20" y="118" dominant-baseline="middle">Baseline (prod + AI) / benign <tspan class="small">(n=50)</tspan></text>
<rect x="310" y="108" width="650" height="20" fill="none" stroke="#ddd"/>
<rect x="310" y="108" width="650" height="20" fill="#2e7d32"/>
<text class="t small" x="635" y="118" text-anchor="middle" dominant-baseline="middle" fill="#fff">50</text>
<text class="t label" x="20" y="152" dominant-baseline="middle">AI off (prod) / malware <tspan class="small">(n=70)</tspan></text>
<rect x="310" y="142" width="650" height="20" fill="none" stroke="#ddd"/>
<rect x="310" y="142" width="650" height="20" fill="#c62828"/>
<text class="t small" x="635" y="152" text-anchor="middle" dominant-baseline="middle" fill="#fff">70</text>
<text class="t label" x="20" y="186" dominant-baseline="middle">AI off (prod) / benign <tspan class="small">(n=50)</tspan></text>
<rect x="310" y="176" width="650" height="20" fill="none" stroke="#ddd"/>
<rect x="310" y="176" width="559" height="20" fill="#2e7d32"/>
<text class="t small" x="589.5" y="186" text-anchor="middle" dominant-baseline="middle" fill="#fff">43</text>
<rect x="869" y="176" width="91.00000000000001" height="20" fill="#f9a825"/>
<text class="t small" x="914.5" y="186" text-anchor="middle" dominant-baseline="middle" fill="#fff">7</text>
<text class="t label" x="20" y="220" dominant-baseline="middle">AI off (demo) / malware <tspan class="small">(n=70)</tspan></text>
<rect x="310" y="210" width="650" height="20" fill="none" stroke="#ddd"/>
<rect x="310" y="210" width="27.857142857142858" height="20" fill="#2e7d32"/>
<rect x="337.85714285714283" y="210" width="9.285714285714285" height="20" fill="#f9a825"/>
<rect x="347.1428571428571" y="210" width="612.8571428571429" height="20" fill="#c62828"/>
<text class="t small" x="653.5714285714286" y="220" text-anchor="middle" dominant-baseline="middle" fill="#fff">66</text>
<text class="t label" x="20" y="254" dominant-baseline="middle">AI off (demo) / benign <tspan class="small">(n=50)</tspan></text>
<rect x="310" y="244" width="650" height="20" fill="none" stroke="#ddd"/>
<rect x="310" y="244" width="507" height="20" fill="#2e7d32"/>
<text class="t small" x="563.5" y="254" text-anchor="middle" dominant-baseline="middle" fill="#fff">39</text>
<rect x="817" y="244" width="130" height="20" fill="#f9a825"/>
<text class="t small" x="882" y="254" text-anchor="middle" dominant-baseline="middle" fill="#fff">10</text>
<rect x="947" y="244" width="13" height="20" fill="#c62828"/>
<rect x="20" y="286" width="12" height="12" fill="#2e7d32"/>
<text class="t small" x="36" y="296" dominant-baseline="middle">CLEAN</text>
<rect x="89" y="286" width="12" height="12" fill="#f9a825"/>
<text class="t small" x="105" y="296" dominant-baseline="middle">SUSPICIOUS</text>
<rect x="193" y="286" width="12" height="12" fill="#c62828"/>
<text class="t small" x="209" y="296" dominant-baseline="middle">MALICIOUS</text>
</svg>
