<svg xmlns="http://www.w3.org/2000/svg" width="980" height="322" viewBox="0 0 980 322"><style>.t{font-family:ui-sans-serif,system-ui,-apple-system,Segoe UI,Roboto,Arial;fill:#111}.title{font-size:20px;font-weight:700}.label{font-size:13px}.small{font-size:12px;fill:#333}</style><rect width="980" height="322" x="0" y="0" fill="#fff"/><text x="20" y="38" class="t title">Ablation: verdict distribution</text><text x="20" y="62" class="t small">Baseline vs AI-off (prod rules) vs AI-off (demo rules)</text><text x="20" y="84" class="t label" dominant-baseline="middle">Baseline (prod + AI) / malware <tspan class="small">(n=70)</tspan></text><rect width="650" height="20" x="310" y="74" fill="none" stroke="#ddd"/><rect width="650" height="20" x="310" y="74" fill="#c62828"/><text x="635" y="84" fill="#fff" class="t small" dominant-baseline="middle" text-anchor="middle">70</text><text x="20" y="118" class="t label" dominant-baseline="middle">Baseline (prod + AI) / benign <tspan class="small">(n=50)</tspan></text><rect width="650" height="20" x="310" y="108" fill="none" stroke="#ddd"/><rect width="650" height="20" x="310" y="108" fill="#2e7d32"/><text x="635" y="118" fill="#fff" class="t small" dominant-baseline="middle" text-anchor="middle">50</text><text x="20" y="152" class="t label" dominant-baseline="middle">AI off (prod) / malware <tspan class="small">(n=70)</tspan></text><rect width="650" height="20" x="310" y="142" fill="none" stroke="#ddd"/><rect width="650" height="20" x="310" y="142" fill="#c62828"/><text x="635" y="152" fill="#fff" class="t small" dominant-baseline="middle" text-anchor="middle">70</text><text x="20" y="186" class="t label" dominant-baseline="middle">AI off (prod) / benign <tspan class="small">(n=50)</tspan></text><rect width="650" height="20" x="310" y="176" fill="none" stroke="#ddd"/><rect width="559" height="20" x="310" y="176" fill="#2e7d32"/><text x="589.5" y="186" fill="#fff" class="t small" dominant-baseline="middle" text-anchor="middle">43</text><rect width="91" height="20" x="869" y="176" fill="#f9a825"/><text x="914.5" y="186" fill="#fff" class="t small" dominant-baseline="middle" text-anchor="middle">7</text><text x="20" y="220" class="t label" dominant-baseline="middle">AI off (demo) / malware <tspan class="small">(n=70)</tspan></text><rect width="650" height="20" x="310" y="210" fill="none" stroke="#ddd"/><rect width="27.857" height="20" x="310" y="210" fill="#2e7d32"/><rect width="9.286" height="20" x="337.857" y="210" fill="#f9a825"/><rect width="612.857" height="20" x="347.143" y="210" fill="#c62828"/><text x="653.571" y="220" fill="#fff" class="t small" dominant-baseline="middle" text-anchor="middle">66</text><text x="20" y="254" class="t label" dominant-baseline="middle">AI off (demo) / benign <tspan class="small">(n=50)</tspan></text><rect width="650" height="20" x="310" y="244" fill="none" stroke="#ddd"/><rect width="507" height="20" x="310" y="244" fill="#2e7d32"/><text x="563.5" y="254" fill="#fff" class="t small" dominant-baseline="middle" text-anchor="middle">39</text><rect width="130" height="20" x="817" y="244" fill="#f9a825"/><text x="882" y="254" fill="#fff" class="t small" dominant-baseline="middle" text-anchor="middle">10</text><rect width="13" height="20" x="947" y="244" fill="#c62828"/><rect width="12" height="12" x="20" y="286" fill="#2e7d32"/><text x="36" y="296" class="t small" dominant-baseline="middle">CLEAN</text><rect width="12" height="12" x="89" y="286" fill="#f9a825"/><text x="105" y="296" class="t small" dominant-baseline="middle">SUSPICIOUS</text><rect width="12" height="12" x="193" y="286" fill="#c62828"/><text x="209" y="296" class="t small" dominant-baseline="middle">MALICIOUS</text></svg>