<svg xmlns="http://www.w3.org/2000/svg" width="920" height="262" viewBox="0 0 920 262"><style>.t{font-family:ui-sans-serif,system-ui,-apple-system,Segoe UI,Roboto,Arial;fill:#111}.title{font-size:20px;font-weight:700}.label{font-size:13px}.small{font-size:12px;fill:#333}.mono{font-family:ui-monospace,SFMono-Regular,Menlo,Monaco,Consolas,&quot;Liberation Mono&quot;,&quot;Courier New&quot;,monospace}</style><rect width="920" height="262" x="0" y="0" fill="#fff"/><text x="20" y="38" class="t title">Top capability intersections (baseline)</text><text x="20" y="64" class="t label" dominant-baseline="middle">malware <tspan class="small">(n=70)</tspan></text><text x="20" y="84" class="t small mono" dominant-baseline="middle">dynamic_loading+filesystem+...</text><rect width="170" height="14" x="230" y="77" fill="none" stroke="#eee"/><rect width="170" height="14" x="230" y="77" fill="#c62828"/><text x="408" y="84" class="t small" dominant-baseline="middle">53</text><text x="20" y="110" class="t small mono" dominant-baseline="middle">dynamic_loading</text><rect width="170" height="14" x="230" y="103" fill="none" stroke="#eee"/><rect width="41.698" height="14" x="230" y="103" fill="#c62828"/><text x="408" y="110" class="t small" dominant-baseline="middle">13</text><text x="20" y="136" class="t small mono" dominant-baseline="middle">(none)</text><rect width="170" height="14" x="230" y="129" fill="none" stroke="#eee"/><rect width="6.415" height="14" x="230" y="129" fill="#c62828"/><text x="408" y="136" class="t small" dominant-baseline="middle">2</text><text x="20" y="162" class="t small mono" dominant-baseline="middle">network</text><rect width="170" height="14" x="230" y="155" fill="none" stroke="#eee"/><rect width="6.415" height="14" x="230" y="155" fill="#c62828"/><text x="408" y="162" class="t small" dominant-baseline="middle">2</text><text x="480" y="64" class="t label" dominant-baseline="middle">benign <tspan class="small">(n=50)</tspan></text><text x="480" y="84" class="t small mono" dominant-baseline="middle">(none)</text><rect width="170" height="14" x="690" y="77" fill="none" stroke="#eee"/><rect width="170" height="14" x="690" y="77" fill="#2e7d32"/><text x="868" y="84" class="t small" dominant-baseline="middle">35</text><text x="480" y="110" class="t small mono" dominant-baseline="middle">deserialization+network</text><rect width="170" height="14" x="690" y="103" fill="none" stroke="#eee"/><rect width="19.429" height="14" x="690" y="103" fill="#2e7d32"/><text x="868" y="110" class="t small" dominant-baseline="middle">4</text><text x="480" y="136" class="t small mono" dominant-baseline="middle">native_loading</text><rect width="170" height="14" x="690" y="129" fill="none" stroke="#eee"/><rect width="14.571" height="14" x="690" y="129" fill="#2e7d32"/><text x="868" y="136" class="t small" dominant-baseline="middle">3</text><text x="480" y="162" class="t small mono" dominant-baseline="middle">network</text><rect width="170" height="14" x="690" y="155" fill="none" stroke="#eee"/><rect width="14.571" height="14" x="690" y="155" fill="#2e7d32"/><text x="868" y="162" class="t small" dominant-baseline="middle">3</text><text x="480" y="188" class="t small mono" dominant-baseline="middle">filesystem</text><rect width="170" height="14" x="690" y="181" fill="none" stroke="#eee"/><rect width="9.714" height="14" x="690" y="181" fill="#2e7d32"/><text x="868" y="188" class="t small" dominant-baseline="middle">2</text><text x="480" y="214" class="t small mono" dominant-baseline="middle">dynamic_loading</text><rect width="170" height="14" x="690" y="207" fill="none" stroke="#eee"/><rect width="4.857" height="14" x="690" y="207" fill="#2e7d32"/><text x="868" y="214" class="t small" dominant-baseline="middle">1</text><rect width="12" height="12" x="20" y="238" fill="#c62828"/><text x="36" y="248" class="t small" dominant-baseline="middle">malware</text><rect width="12" height="12" x="103" y="238" fill="#2e7d32"/><text x="119" y="248" class="t small" dominant-baseline="middle">benign</text></svg>