<?xml version="1.0" encoding="UTF-8"?>
<svg xmlns="http://www.w3.org/2000/svg" width="920" height="262" viewBox="0 0 920 262">
<style>
  .t { font-family: ui-sans-serif, system-ui, -apple-system, Segoe UI, Roboto, Arial; fill: #111; }
  .title { font-size: 20px; font-weight: 700; }
  .label { font-size: 13px; }
  .small { font-size: 12px; fill: #333; }
  .mono { font-family: ui-monospace, SFMono-Regular, Menlo, Monaco, Consolas, "Liberation Mono", "Courier New", monospace; }
</style>
<rect x="0" y="0" width="920" height="262" fill="#fff"/>
<text class="t title" x="20" y="38">Top capability intersections (baseline)</text>
<text class="t label" x="20" y="64" dominant-baseline="middle">malware <tspan class="small">(n=70)</tspan></text>
<text class="t small mono" x="20" y="84" dominant-baseline="middle">dynamic_loading+filesystem+...</text>
<rect x="230" y="77" width="170" height="14" fill="none" stroke="#eee"/>
<rect x="230" y="77" width="170" height="14" fill="#c62828"/>
<text class="t small" x="408" y="84" dominant-baseline="middle">53</text>
<text class="t small mono" x="20" y="110" dominant-baseline="middle">dynamic_loading</text>
<rect x="230" y="103" width="170" height="14" fill="none" stroke="#eee"/>
<rect x="230" y="103" width="41.69811320754717" height="14" fill="#c62828"/>
<text class="t small" x="408" y="110" dominant-baseline="middle">13</text>
<text class="t small mono" x="20" y="136" dominant-baseline="middle">(none)</text>
<rect x="230" y="129" width="170" height="14" fill="none" stroke="#eee"/>
<rect x="230" y="129" width="6.415094339622641" height="14" fill="#c62828"/>
<text class="t small" x="408" y="136" dominant-baseline="middle">2</text>
<text class="t small mono" x="20" y="162" dominant-baseline="middle">network</text>
<rect x="230" y="155" width="170" height="14" fill="none" stroke="#eee"/>
<rect x="230" y="155" width="6.415094339622641" height="14" fill="#c62828"/>
<text class="t small" x="408" y="162" dominant-baseline="middle">2</text>
<text class="t label" x="480" y="64" dominant-baseline="middle">benign <tspan class="small">(n=50)</tspan></text>
<text class="t small mono" x="480" y="84" dominant-baseline="middle">(none)</text>
<rect x="690" y="77" width="170" height="14" fill="none" stroke="#eee"/>
<rect x="690" y="77" width="170" height="14" fill="#2e7d32"/>
<text class="t small" x="868" y="84" dominant-baseline="middle">35</text>
<text class="t small mono" x="480" y="110" dominant-baseline="middle">deserialization+network</text>
<rect x="690" y="103" width="170" height="14" fill="none" stroke="#eee"/>
<rect x="690" y="103" width="19.428571428571427" height="14" fill="#2e7d32"/>
<text class="t small" x="868" y="110" dominant-baseline="middle">4</text>
<text class="t small mono" x="480" y="136" dominant-baseline="middle">native_loading</text>
<rect x="690" y="129" width="170" height="14" fill="none" stroke="#eee"/>
<rect x="690" y="129" width="14.571428571428571" height="14" fill="#2e7d32"/>
<text class="t small" x="868" y="136" dominant-baseline="middle">3</text>
<text class="t small mono" x="480" y="162" dominant-baseline="middle">network</text>
<rect x="690" y="155" width="170" height="14" fill="none" stroke="#eee"/>
<rect x="690" y="155" width="14.571428571428571" height="14" fill="#2e7d32"/>
<text class="t small" x="868" y="162" dominant-baseline="middle">3</text>
<text class="t small mono" x="480" y="188" dominant-baseline="middle">filesystem</text>
<rect x="690" y="181" width="170" height="14" fill="none" stroke="#eee"/>
<rect x="690" y="181" width="9.714285714285714" height="14" fill="#2e7d32"/>
<text class="t small" x="868" y="188" dominant-baseline="middle">2</text>
<text class="t small mono" x="480" y="214" dominant-baseline="middle">dynamic_loading</text>
<rect x="690" y="207" width="170" height="14" fill="none" stroke="#eee"/>
<rect x="690" y="207" width="4.857142857142857" height="14" fill="#2e7d32"/>
<text class="t small" x="868" y="214" dominant-baseline="middle">1</text>
<rect x="20" y="238" width="12" height="12" fill="#c62828"/>
<text class="t small" x="36" y="248" dominant-baseline="middle">malware</text>
<rect x="103" y="238" width="12" height="12" fill="#2e7d32"/>
<text class="t small" x="119" y="248" dominant-baseline="middle">benign</text>
</svg>
