<svg xmlns="http://www.w3.org/2000/svg" width="920" height="462" viewBox="0 0 920 462"><style>.t{font-family:ui-sans-serif,system-ui,-apple-system,Segoe UI,Roboto,Arial;fill:#111}.title{font-size:20px;font-weight:700}.label{font-size:13px}.small{font-size:12px;fill:#333}</style><rect width="920" height="462" x="0" y="0" fill="#fff"/><text x="20" y="38" class="t title">Capability prevalence (baseline)</text><text x="20" y="62" class="t small">Fraction of samples where the capability is present at medium/high severity.</text><line x1="200" x2="720" y1="70" y2="70" stroke="#eee"/><line x1="200" x2="200" y1="70" y2="416" stroke="#f3f3f3"/><text x="200" y="434" class="t small" text-anchor="middle">0%</text><line x1="330" x2="330" y1="70" y2="416" stroke="#f3f3f3"/><text x="330" y="434" class="t small" text-anchor="middle">25%</text><line x1="460" x2="460" y1="70" y2="416" stroke="#f3f3f3"/><text x="460" y="434" class="t small" text-anchor="middle">50%</text><line x1="590" x2="590" y1="70" y2="416" stroke="#f3f3f3"/><text x="590" y="434" class="t small" text-anchor="middle">75%</text><line x1="720" x2="720" y1="70" y2="416" stroke="#f3f3f3"/><text x="720" y="434" class="t small" text-anchor="middle">100%</text><text x="20" y="88" class="t label" dominant-baseline="middle">dynamic loading</text><rect width="520" height="14" x="200" y="78" fill="none" stroke="#eee"/><rect width="490.286" height="14" x="200" y="78" fill="#c62828"/><text x="730" y="85" class="t small" dominant-baseline="middle">94.3%</text><rect width="520" height="14" x="200" y="98" fill="none" stroke="#eee"/><rect width="10.4" height="14" x="200" y="98" fill="#2e7d32"/><text x="730" y="105" class="t small" dominant-baseline="middle">2.0%</text><text x="20" y="130" class="t label" dominant-baseline="middle">network</text><rect width="520" height="14" x="200" y="120" fill="none" stroke="#eee"/><rect width="408.571" height="14" x="200" y="120" fill="#c62828"/><text x="730" y="127" class="t small" dominant-baseline="middle">78.6%</text><rect width="520" height="14" x="200" y="140" fill="none" stroke="#eee"/><rect width="93.6" height="14" x="200" y="140" fill="#2e7d32"/><text x="730" y="147" class="t small" dominant-baseline="middle">18.0%</text><text x="20" y="172" class="t label" dominant-baseline="middle">filesystem</text><rect width="520" height="14" x="200" y="162" fill="none" stroke="#eee"/><rect width="393.714" height="14" x="200" y="162" fill="#c62828"/><text x="730" y="169" class="t small" dominant-baseline="middle">75.7%</text><rect width="520" height="14" x="200" y="182" fill="none" stroke="#eee"/><rect width="31.2" height="14" x="200" y="182" fill="#2e7d32"/><text x="730" y="189" class="t small" dominant-baseline="middle">6.0%</text><text x="20" y="214" class="t label" dominant-baseline="middle">credential theft</text><rect width="520" height="14" x="200" y="204" fill="none" stroke="#eee"/><rect width="0" height="14" x="200" y="204" fill="#c62828"/><text x="730" y="211" class="t small" dominant-baseline="middle">0.0%</text><rect width="520" height="14" x="200" y="224" fill="none" stroke="#eee"/><rect width="0" height="14" x="200" y="224" fill="#2e7d32"/><text x="730" y="231" class="t small" dominant-baseline="middle">0.0%</text><text x="20" y="256" class="t label" dominant-baseline="middle">deserialization</text><rect width="520" height="14" x="200" y="246" fill="none" stroke="#eee"/><rect width="0" height="14" x="200" y="246" fill="#c62828"/><text x="730" y="253" class="t small" dominant-baseline="middle">0.0%</text><rect width="520" height="14" x="200" y="266" fill="none" stroke="#eee"/><rect width="41.6" height="14" x="200" y="266" fill="#2e7d32"/><text x="730" y="273" class="t small" dominant-baseline="middle">8.0%</text><text x="20" y="298" class="t label" dominant-baseline="middle">execution</text><rect width="520" height="14" x="200" y="288" fill="none" stroke="#eee"/><rect width="0" height="14" x="200" y="288" fill="#c62828"/><text x="730" y="295" class="t small" dominant-baseline="middle">0.0%</text><rect width="520" height="14" x="200" y="308" fill="none" stroke="#eee"/><rect width="0" height="14" x="200" y="308" fill="#2e7d32"/><text x="730" y="315" class="t small" dominant-baseline="middle">0.0%</text><text x="20" y="340" class="t label" dominant-baseline="middle">native loading</text><rect width="520" height="14" x="200" y="330" fill="none" stroke="#eee"/><rect width="0" height="14" x="200" y="330" fill="#c62828"/><text x="730" y="337" class="t small" dominant-baseline="middle">0.0%</text><rect width="520" height="14" x="200" y="350" fill="none" stroke="#eee"/><rect width="41.6" height="14" x="200" y="350" fill="#2e7d32"/><text x="730" y="357" class="t small" dominant-baseline="middle">8.0%</text><text x="20" y="382" class="t label" dominant-baseline="middle">persistence</text><rect width="520" height="14" x="200" y="372" fill="none" stroke="#eee"/><rect width="0" height="14" x="200" y="372" fill="#c62828"/><text x="730" y="379" class="t small" dominant-baseline="middle">0.0%</text><rect width="520" height="14" x="200" y="392" fill="none" stroke="#eee"/><rect width="0" height="14" x="200" y="392" fill="#2e7d32"/><text x="730" y="399" class="t small" dominant-baseline="middle">0.0%</text><rect width="12" height="12" x="20" y="438" fill="#c62828"/><text x="36" y="448" class="t small" dominant-baseline="middle">malware</text><rect width="12" height="12" x="103" y="438" fill="#2e7d32"/><text x="119" y="448" class="t small" dominant-baseline="middle">benign</text></svg>