<?xml version="1.0" encoding="UTF-8"?>
<svg xmlns="http://www.w3.org/2000/svg" width="920" height="462" viewBox="0 0 920 462">
<style>
  .t { font-family: ui-sans-serif, system-ui, -apple-system, Segoe UI, Roboto, Arial; fill: #111; }
  .title { font-size: 20px; font-weight: 700; }
  .label { font-size: 13px; }
  .small { font-size: 12px; fill: #333; }
  .mono { font-family: ui-monospace, SFMono-Regular, Menlo, Monaco, Consolas, "Liberation Mono", "Courier New", monospace; }
</style>
<rect x="0" y="0" width="920" height="462" fill="#fff"/>
<text class="t title" x="20" y="38">Capability prevalence (baseline)</text>
<text class="t small" x="20" y="62">Fraction of samples where the capability is present at medium/high severity.</text>
<line x1="200" y1="70" x2="720" y2="70" stroke="#eee"/>
<line x1="200" y1="70" x2="200" y2="416" stroke="#f3f3f3"/>
<text class="t small" x="200" y="434" text-anchor="middle">0%</text>
<line x1="330" y1="70" x2="330" y2="416" stroke="#f3f3f3"/>
<text class="t small" x="330" y="434" text-anchor="middle">25%</text>
<line x1="460" y1="70" x2="460" y2="416" stroke="#f3f3f3"/>
<text class="t small" x="460" y="434" text-anchor="middle">50%</text>
<line x1="590" y1="70" x2="590" y2="416" stroke="#f3f3f3"/>
<text class="t small" x="590" y="434" text-anchor="middle">75%</text>
<line x1="720" y1="70" x2="720" y2="416" stroke="#f3f3f3"/>
<text class="t small" x="720" y="434" text-anchor="middle">100%</text>
<text class="t label" x="20" y="88" dominant-baseline="middle">dynamic loading</text>
<rect x="200" y="78" width="520" height="14" fill="none" stroke="#eee"/>
<rect x="200" y="78" width="490.2857142857143" height="14" fill="#c62828"/>
<text class="t small" x="730" y="85" dominant-baseline="middle">94.3%</text>
<rect x="200" y="98" width="520" height="14" fill="none" stroke="#eee"/>
<rect x="200" y="98" width="10.4" height="14" fill="#2e7d32"/>
<text class="t small" x="730" y="105" dominant-baseline="middle">2.0%</text>
<text class="t label" x="20" y="130" dominant-baseline="middle">network</text>
<rect x="200" y="120" width="520" height="14" fill="none" stroke="#eee"/>
<rect x="200" y="120" width="408.57142857142856" height="14" fill="#c62828"/>
<text class="t small" x="730" y="127" dominant-baseline="middle">78.6%</text>
<rect x="200" y="140" width="520" height="14" fill="none" stroke="#eee"/>
<rect x="200" y="140" width="93.6" height="14" fill="#2e7d32"/>
<text class="t small" x="730" y="147" dominant-baseline="middle">18.0%</text>
<text class="t label" x="20" y="172" dominant-baseline="middle">filesystem</text>
<rect x="200" y="162" width="520" height="14" fill="none" stroke="#eee"/>
<rect x="200" y="162" width="393.7142857142857" height="14" fill="#c62828"/>
<text class="t small" x="730" y="169" dominant-baseline="middle">75.7%</text>
<rect x="200" y="182" width="520" height="14" fill="none" stroke="#eee"/>
<rect x="200" y="182" width="31.2" height="14" fill="#2e7d32"/>
<text class="t small" x="730" y="189" dominant-baseline="middle">6.0%</text>
<text class="t label" x="20" y="214" dominant-baseline="middle">credential theft</text>
<rect x="200" y="204" width="520" height="14" fill="none" stroke="#eee"/>
<rect x="200" y="204" width="0" height="14" fill="#c62828"/>
<text class="t small" x="730" y="211" dominant-baseline="middle">0.0%</text>
<rect x="200" y="224" width="520" height="14" fill="none" stroke="#eee"/>
<rect x="200" y="224" width="0" height="14" fill="#2e7d32"/>
<text class="t small" x="730" y="231" dominant-baseline="middle">0.0%</text>
<text class="t label" x="20" y="256" dominant-baseline="middle">deserialization</text>
<rect x="200" y="246" width="520" height="14" fill="none" stroke="#eee"/>
<rect x="200" y="246" width="0" height="14" fill="#c62828"/>
<text class="t small" x="730" y="253" dominant-baseline="middle">0.0%</text>
<rect x="200" y="266" width="520" height="14" fill="none" stroke="#eee"/>
<rect x="200" y="266" width="41.6" height="14" fill="#2e7d32"/>
<text class="t small" x="730" y="273" dominant-baseline="middle">8.0%</text>
<text class="t label" x="20" y="298" dominant-baseline="middle">execution</text>
<rect x="200" y="288" width="520" height="14" fill="none" stroke="#eee"/>
<rect x="200" y="288" width="0" height="14" fill="#c62828"/>
<text class="t small" x="730" y="295" dominant-baseline="middle">0.0%</text>
<rect x="200" y="308" width="520" height="14" fill="none" stroke="#eee"/>
<rect x="200" y="308" width="0" height="14" fill="#2e7d32"/>
<text class="t small" x="730" y="315" dominant-baseline="middle">0.0%</text>
<text class="t label" x="20" y="340" dominant-baseline="middle">native loading</text>
<rect x="200" y="330" width="520" height="14" fill="none" stroke="#eee"/>
<rect x="200" y="330" width="0" height="14" fill="#c62828"/>
<text class="t small" x="730" y="337" dominant-baseline="middle">0.0%</text>
<rect x="200" y="350" width="520" height="14" fill="none" stroke="#eee"/>
<rect x="200" y="350" width="41.6" height="14" fill="#2e7d32"/>
<text class="t small" x="730" y="357" dominant-baseline="middle">8.0%</text>
<text class="t label" x="20" y="382" dominant-baseline="middle">persistence</text>
<rect x="200" y="372" width="520" height="14" fill="none" stroke="#eee"/>
<rect x="200" y="372" width="0" height="14" fill="#c62828"/>
<text class="t small" x="730" y="379" dominant-baseline="middle">0.0%</text>
<rect x="200" y="392" width="520" height="14" fill="none" stroke="#eee"/>
<rect x="200" y="392" width="0" height="14" fill="#2e7d32"/>
<text class="t small" x="730" y="399" dominant-baseline="middle">0.0%</text>
<rect x="20" y="438" width="12" height="12" fill="#c62828"/>
<text class="t small" x="36" y="448" dominant-baseline="middle">malware</text>
<rect x="103" y="438" width="12" height="12" fill="#2e7d32"/>
<text class="t small" x="119" y="448" dominant-baseline="middle">benign</text>
</svg>
