<svg xmlns="http://www.w3.org/2000/svg" width="3401.528" height="1780" viewBox="0 0 3401.528 1780" style="--bg:#0d1117;--fg:#e6edf3;--line:#3d444d;--accent:#4493f8;--muted:#9198a1;background:var(--bg)"><style>@import url(https://fonts.googleapis.com/css2?family=Inter:wght@400;500;600;700&amp;display=swap);text{font-family:&apos;Inter&apos;,system-ui,sans-serif}svg{--_text:var(--fg);--_text-sec:var(--muted, color-mix(in srgb, var(--fg) 60%, var(--bg)));--_text-muted:var(--muted, color-mix(in srgb, var(--fg) 40%, var(--bg)));--_text-faint:color-mix(in srgb, var(--fg) 25%, var(--bg));--_line:var(--line, color-mix(in srgb, var(--fg) 30%, var(--bg)));--_arrow:var(--accent, color-mix(in srgb, var(--fg) 50%, var(--bg)));--_node-fill:var(--surface, color-mix(in srgb, var(--fg) 3%, var(--bg)));--_node-stroke:var(--border, color-mix(in srgb, var(--fg) 20%, var(--bg)));--_group-fill:var(--bg);--_group-hdr:color-mix(in srgb, var(--fg) 5%, var(--bg));--_inner-stroke:color-mix(in srgb, var(--fg) 12%, var(--bg));--_key-badge:color-mix(in srgb, var(--fg) 10%, var(--bg))}</style><defs><marker id="arrowhead" markerHeight="4.8" markerWidth="8" orient="auto" refX="8" refY="2.4"><polygon fill="var(--_arrow)" points="0 0 8 2.4 0 4.8"/></marker><marker id="arrowhead-start" markerHeight="4.8" markerWidth="8" orient="auto-start-reverse" refX="0" refY="2.4"><polygon fill="var(--_arrow)" points="8 0 0 2.4 8 4.8"/></marker></defs><rect width="553.85" height="112" x="2192.54" y="40" fill="var(--_group-fill)" stroke="var(--_node-stroke)" stroke-width="1" rx="0" ry="0"/><rect width="553.85" height="28" x="2192.54" y="40" fill="var(--_group-hdr)" stroke="var(--_node-stroke)" stroke-width="1" rx="0" ry="0"/><text x="2204.54" y="54" fill="var(--_text-sec)" dy=".35em" font-size="12" font-weight="600">&quot;Client&quot;</text><rect width="3321.528" height="268" x="40" y="196" fill="var(--_group-fill)" stroke="var(--_node-stroke)" stroke-width="1" rx="0" ry="0"/><rect width="3321.528" height="28" x="40" y="196" fill="var(--_group-hdr)" stroke="var(--_node-stroke)" stroke-width="1" rx="0" ry="0"/><text x="52" y="210" fill="var(--_text-sec)" dy=".35em" font-size="12" font-weight="600">&quot;Jarspect (Axum server · src/main.rs)&quot;</text><rect width="3137.055" height="123" x="47.938" y="1617" fill="var(--_group-fill)" stroke="var(--_node-stroke)" stroke-width="1" rx="0" ry="0"/><rect width="3137.055" height="28" x="47.938" y="1617" fill="var(--_group-hdr)" stroke="var(--_node-stroke)" stroke-width="1" rx="0" ry="0"/><text x="59.938" y="1631" fill="var(--_text-sec)" dy=".35em" font-size="12" font-weight="600">&quot;Local storage&quot;</text><rect width="1844.35" height="1048" x="1036.5" y="508" fill="var(--_group-fill)" stroke="var(--_node-stroke)" stroke-width="1" rx="0" ry="0"/><rect width="1844.35" height="28" x="1036.5" y="508" fill="var(--_group-hdr)" stroke="var(--_node-stroke)" stroke-width="1" rx="0" ry="0"/><text x="1048.5" y="522" fill="var(--_text-sec)" dy=".35em" font-size="12" font-weight="600">&quot;Scan pipeline (src/lib.rs · run_scan)&quot;</text><rect width="847" height="112" x="169.5" y="820" fill="var(--_group-fill)" stroke="var(--_node-stroke)" stroke-width="1" rx="0" ry="0"/><rect width="847" height="28" x="169.5" y="820" fill="var(--_group-hdr)" stroke="var(--_node-stroke)" stroke-width="1" rx="0" ry="0"/><text x="181.5" y="834" fill="var(--_text-sec)" dy=".35em" font-size="12" font-weight="600">&quot;Signature data&quot;</text><polyline fill="none" stroke="var(--_line)" stroke-width=".75" marker-end="url(#arrowhead)" points="2355.665 132 2355.665 270 2451.678 270"/><polyline fill="none" stroke="var(--_line)" stroke-width=".75" marker-end="url(#arrowhead)" points="2622.59 132 2622.59 270 2526.578 270"/><polyline fill="none" stroke="var(--_line)" stroke-width=".75" marker-end="url(#arrowhead)" points="2489.128 288 2489.128 308 3284.203 308 3284.203 408"/><polyline fill="none" stroke="var(--_line)" stroke-width=".75" marker-end="url(#arrowhead)" points="2489.128 288 2489.128 308 3095.928 308 3095.928 408"/><polyline fill="none" stroke="var(--_line)" stroke-width=".75" marker-end="url(#arrowhead)" points="2489.128 288 2489.128 308 2336.003 308 2336.003 408"/><polyline fill="none" stroke="var(--_line)" stroke-width=".75" marker-end="url(#arrowhead)" points="2489.128 288 2489.128 308 149.5 308 149.5 408"/><polyline fill="none" stroke="var(--_line)" stroke-width=".75" marker-end="url(#arrowhead)" points="3095.928 444 3095.928 1696.5 3162.993 1696.5"/><polyline fill="none" stroke="var(--_line)" stroke-width=".75" marker-end="url(#arrowhead)" points="2336.003 444 2336.003 464 2927.73 464 2927.73 1696.5 2952.243 1696.5"/><polyline fill="none" stroke="var(--_line)" stroke-width=".75" marker-end="url(#arrowhead)" points="2336.003 444 2336.003 464 1900.913 464 1900.913 564"/><polyline fill="none" stroke="var(--_line)" stroke-width=".75" marker-end="url(#arrowhead)" points="1900.913 600 1900.913 620 2450.263 620 2450.263 720"/><polyline fill="none" stroke="var(--_line)" stroke-width=".75" marker-end="url(#arrowhead)" points="2450.263 756 2450.263 776 2587.238 776 2587.238 876"/><polyline fill="none" stroke="var(--_line)" stroke-width=".75" marker-end="url(#arrowhead)" points="1900.913 600 1900.913 620 1893.763 620 1893.763 720"/><polyline fill="none" stroke="var(--_line)" stroke-width=".75" marker-end="url(#arrowhead)" points="1900.913 600 1900.913 620 1330.113 620 1330.113 720"/><polyline fill="none" stroke="var(--_line)" stroke-width=".75" marker-end="url(#arrowhead)" points="2450.263 756 2450.263 776 2192.013 776 2192.013 1050 2184.013 1050"/><polyline fill="none" stroke="var(--_line)" stroke-width=".75" marker-end="url(#arrowhead)" points="2587.238 912 2587.238 1050 2716.513 1050"/><polyline fill="none" stroke="var(--_line)" stroke-width=".75" marker-end="url(#arrowhead)" points="2450.263 1068 2450.263 1206 2202.913 1206"/><polyline fill="none" stroke="var(--_line)" stroke-width=".75" marker-end="url(#arrowhead)" points="1893.763 756 1893.763 776 1960.963 776 1960.963 1206 2202.913 1206"/><polyline fill="none" stroke="var(--_line)" stroke-width=".75" marker-end="url(#arrowhead)" points="1330.113 756 1330.113 1206 1677.563 1206"/><polyline fill="none" stroke="var(--_line)" stroke-width=".75" marker-end="url(#arrowhead)" points="1940.238 1224 1940.238 1244 2572.938 1244 2572.938 1344"/><polyline fill="none" stroke="var(--_line)" stroke-width=".75" marker-end="url(#arrowhead)" points="1940.238 1224 1940.238 1244 1203.138 1244 1203.138 1518 1513.05 1518"/><polyline fill="none" stroke="var(--_line)" stroke-width=".75" marker-end="url(#arrowhead)" points="2572.938 1380 2572.938 1518 2095.6 1518"/><polyline fill="none" stroke="var(--_line)" stroke-width=".75" marker-end="url(#arrowhead)" points="1772.15 1380 1772.15 1518 1513.05 1518"/><polyline fill="none" stroke="var(--_line)" stroke-width=".75" marker-end="url(#arrowhead)" points="1893.763 756 1893.763 776 1900.913 776 1900.913 894 994.5 894"/><polyline fill="none" stroke="var(--_line)" stroke-width=".75" marker-end="url(#arrowhead)" points="1893.763 756 1893.763 776 1619.088 776 1619.088 894 581 894"/><polyline fill="none" stroke="var(--_line)" stroke-width=".75" marker-end="url(#arrowhead)" points="1804.325 1536 1804.325 1696.5 874.675 1696.5"/><polyline fill="none" stroke="var(--_line)" stroke-width=".75" marker-end="url(#arrowhead)" points="149.5 444 149.5 1696.5 613.875 1696.5"/><rect width="67.48" height="27" x="3062.188" y="1036.5" fill="var(--bg)" stroke="var(--_inner-stroke)" stroke-width=".5" rx="4" ry="4"/><text x="3095.928" y="1050" fill="var(--_text-muted)" dy=".35em" font-size="11" font-weight="400" text-anchor="middle">write jar</text><rect width="61.76" height="27" x="2896.85" y="1036.5" fill="var(--bg)" stroke="var(--_inner-stroke)" stroke-width=".5" rx="4" ry="4"/><text x="2927.73" y="1050" fill="var(--_text-muted)" dy=".35em" font-size="11" font-weight="400" text-anchor="middle">read jar</text><rect width="96.08" height="27" x="1756.285" y="1591" fill="var(--bg)" stroke="var(--_inner-stroke)" stroke-width=".5" rx="4" ry="4"/><text x="1804.325" y="1604.5" fill="var(--_text-muted)" dy=".35em" font-size="11" font-weight="400" text-anchor="middle">persist result</text><rect width="78.92" height="27" x="110.04" y="1036.5" fill="var(--bg)" stroke="var(--_inner-stroke)" stroke-width=".5" rx="4" ry="4"/><text x="149.5" y="1050" fill="var(--_text-muted)" dy=".35em" font-size="11" font-weight="400" text-anchor="middle">read result</text><rect width="282.25" height="36" x="2214.54" y="96" fill="var(--_node-fill)" stroke="var(--_node-stroke)" stroke-width=".75" rx="0" ry="0"/><rect width="203.6" height="36" x="2520.79" y="96" fill="var(--_node-fill)" stroke="var(--_node-stroke)" stroke-width=".75" rx="0" ry="0"/><rect width="74.9" height="36" x="2451.678" y="252" fill="var(--_node-fill)" stroke="var(--_node-stroke)" stroke-width=".75" rx="0" ry="0"/><rect width="110.65" height="36" x="3228.878" y="408" fill="var(--_node-fill)" stroke="var(--_node-stroke)" stroke-width=".75" rx="0" ry="0"/><rect width="217.9" height="36" x="2986.978" y="408" fill="var(--_node-fill)" stroke="var(--_node-stroke)" stroke-width=".75" rx="0" ry="0"/><rect width="253.65" height="36" x="2209.178" y="408" fill="var(--_node-fill)" stroke="var(--_node-stroke)" stroke-width=".75" rx="0" ry="0"/><rect width="175" height="36" x="62" y="408" fill="var(--_node-fill)" stroke="var(--_node-stroke)" stroke-width=".75" rx="0" ry="0"/><rect width="210.75" height="33" x="2952.243" y="1680" fill="var(--_node-fill)" stroke="none"/><line x1="2952.243" x2="2952.243" y1="1680" y2="1713" stroke="var(--_node-stroke)" stroke-width=".75"/><line x1="3162.993" x2="3162.993" y1="1680" y2="1713" stroke="var(--_node-stroke)" stroke-width=".75"/><ellipse cx="3057.618" cy="1713" fill="var(--_node-fill)" stroke="var(--_node-stroke)" stroke-width=".75" rx="105.375" ry="7"/><ellipse cx="3057.618" cy="1680" fill="var(--_node-fill)" stroke="var(--_node-stroke)" stroke-width=".75" rx="105.375" ry="7"/><rect width="260.8" height="33" x="613.875" y="1680" fill="var(--_node-fill)" stroke="none"/><line x1="613.875" x2="613.875" y1="1680" y2="1713" stroke="var(--_node-stroke)" stroke-width=".75"/><line x1="874.675" x2="874.675" y1="1680" y2="1713" stroke="var(--_node-stroke)" stroke-width=".75"/><ellipse cx="744.275" cy="1713" fill="var(--_node-fill)" stroke="var(--_node-stroke)" stroke-width=".75" rx="130.4" ry="7"/><ellipse cx="744.275" cy="1680" fill="var(--_node-fill)" stroke="var(--_node-stroke)" stroke-width=".75" rx="130.4" ry="7"/><rect width="482.45" height="36" x="1659.688" y="564" fill="var(--_node-fill)" stroke="var(--_node-stroke)" stroke-width=".75" rx="0" ry="0"/><rect width="518.2" height="36" x="2191.163" y="720" fill="var(--_node-fill)" stroke="var(--_node-stroke)" stroke-width=".75" rx="0" ry="0"/><rect width="503.9" height="36" x="2335.288" y="876" fill="var(--_node-fill)" stroke="var(--_node-stroke)" stroke-width=".75" rx="0" ry="0"/><rect width="546.8" height="36" x="1620.363" y="720" fill="var(--_node-fill)" stroke="var(--_node-stroke)" stroke-width=".75" rx="0" ry="0"/><rect width="532.5" height="36" x="1063.863" y="720" fill="var(--_node-fill)" stroke="var(--_node-stroke)" stroke-width=".75" rx="0" ry="0"/><rect width="532.5" height="36" x="2184.013" y="1032" fill="var(--_node-fill)" stroke="var(--_node-stroke)" stroke-width=".75" rx="0" ry="0"/><rect width="525.35" height="36" x="1677.563" y="1188" fill="var(--_node-fill)" stroke="var(--_node-stroke)" stroke-width=".75" rx="0" ry="0"/><rect width="561.1" height="36" x="2292.387" y="1344" fill="var(--_node-fill)" stroke="var(--_node-stroke)" stroke-width=".75" rx="0" ry="0"/><rect width="360.9" height="36" x="1591.7" y="1344" fill="var(--_node-fill)" stroke="var(--_node-stroke)" stroke-width=".75" rx="0" ry="0"/><rect width="582.55" height="36" x="1513.05" y="1500" fill="var(--_node-fill)" stroke="var(--_node-stroke)" stroke-width=".75" rx="0" ry="0"/><rect width="389.5" height="36" x="605" y="876" fill="var(--_node-fill)" stroke="var(--_node-stroke)" stroke-width=".75" rx="0" ry="0"/><rect width="389.5" height="36" x="191.5" y="876" fill="var(--_node-fill)" stroke="var(--_node-stroke)" stroke-width=".75" rx="0" ry="0"/><text x="2355.665" y="114" fill="var(--_text)" dy=".35em" font-size="13" font-weight="500" text-anchor="middle">Browser UI\nhttp://localhost:18000/</text><text x="2622.59" y="114" fill="var(--_text)" dy=".35em" font-size="13" font-weight="500" text-anchor="middle">bash scripts/demo_run.sh</text><text x="2489.128" y="270" fill="var(--_text)" dy=".35em" font-size="13" font-weight="500" text-anchor="middle">Router</text><text x="3284.203" y="426" fill="var(--_text)" dy=".35em" font-size="13" font-weight="500" text-anchor="middle">GET /health</text><text x="3095.928" y="426" fill="var(--_text)" dy=".35em" font-size="13" font-weight="500" text-anchor="middle">POST /upload\n-&gt; upload_id</text><text x="2336.003" y="426" fill="var(--_text)" dy=".35em" font-size="13" font-weight="500" text-anchor="middle">POST /scan\n-&gt; scan_id + result</text><text x="149.5" y="426" fill="var(--_text)" dy=".35em" font-size="13" font-weight="500" text-anchor="middle">GET /scans/{scan_id}</text><text x="3057.618" y="1696.5" fill="var(--_text)" dy=".35em" font-size="13" font-weight="500" text-anchor="middle">.local-data/uploads/*.jar</text><text x="744.275" y="1696.5" fill="var(--_text)" dy=".35em" font-size="13" font-weight="500" text-anchor="middle">.local-data/scans/{scan_id}.json</text><text x="1900.913" y="582" fill="var(--_text)" dy=".35em" font-size="13" font-weight="500" text-anchor="middle">Archive traversal\nrecursive jar-in-jar\nbudget-gated inflation</text><text x="2450.263" y="738" fill="var(--_text)" dy=".35em" font-size="13" font-weight="500" text-anchor="middle">Bytecode evidence\ncafebabe class parse\nCP strings + invoke resolve</text><text x="2587.238" y="894" fill="var(--_text)" dy=".35em" font-size="13" font-weight="500" text-anchor="middle">Byte-array strings\nnew String·new byte·...·\nopcode state machine</text><text x="1893.763" y="738" fill="var(--_text)" dy=".35em" font-size="13" font-weight="500" text-anchor="middle">YARA per-entry\ninflate + scan individually\nseverity from rule metadata</text><text x="1330.113" y="738" fill="var(--_text)" dy=".35em" font-size="13" font-weight="500" text-anchor="middle">Metadata checks\nfabric.mod.json / mods.toml\nplugin.yml / MANIFEST.MF</text><text x="2450.263" y="1050" fill="var(--_text)" dy=".35em" font-size="13" font-weight="500" text-anchor="middle">8 Capability detectors\nDETC-01..08\nEvidenceIndex + correlation gates</text><text x="1940.238" y="1206" fill="var(--_text)" dy=".35em" font-size="13" font-weight="500" text-anchor="middle">Scoring engine\ndedup + diminishing returns\nsynergy bonuses -&gt; 0-100</text><text x="2572.938" y="1362" fill="var(--_text)" dy=".35em" font-size="13" font-weight="500" text-anchor="middle">Behavior prediction\nevidence-derived URLs\ncommands / paths / persistence</text><text x="1772.15" y="1362" fill="var(--_text)" dy=".35em" font-size="13" font-weight="500" text-anchor="middle">Reputation scoring\nauthor metadata · optional</text><text x="1804.325" y="1518" fill="var(--_text)" dy=".35em" font-size="13" font-weight="500" text-anchor="middle">Verdict synthesis\nrisk_tier · risk_score\nsummary · explanation · indicators</text><text x="799.75" y="894" fill="var(--_text)" dy=".35em" font-size="13" font-weight="500" text-anchor="middle">data/signatures/demo/\nsignatures.json + rules.yar</text><text x="386.25" y="894" fill="var(--_text)" dy=".35em" font-size="13" font-weight="500" text-anchor="middle">data/signatures/prod/\nsignatures.json + rules.yar</text></svg>