<svg xmlns="http://www.w3.org/2000/svg" viewBox="0 0 1738.6875000000005 1468" width="1738.6875000000005" height="1468" style="--bg:#ffffff;--fg:#1f2328;--line:#d1d9e0;--accent:#0969da;--muted:#59636e;background:var(--bg)">
<style>
  @import url('https://fonts.googleapis.com/css2?family=Inter:wght@400;500;600;700&amp;display=swap');
  text { font-family: 'Inter', system-ui, sans-serif; }
  svg {
    /* Derived from --bg and --fg (overridable via --line, --accent, etc.) */
    --_text:          var(--fg);
    --_text-sec:      var(--muted, color-mix(in srgb, var(--fg) 60%, var(--bg)));
    --_text-muted:    var(--muted, color-mix(in srgb, var(--fg) 40%, var(--bg)));
    --_text-faint:    color-mix(in srgb, var(--fg) 25%, var(--bg));
    --_line:          var(--line, color-mix(in srgb, var(--fg) 30%, var(--bg)));
    --_arrow:         var(--accent, color-mix(in srgb, var(--fg) 50%, var(--bg)));
    --_node-fill:     var(--surface, color-mix(in srgb, var(--fg) 3%, var(--bg)));
    --_node-stroke:   var(--border, color-mix(in srgb, var(--fg) 20%, var(--bg)));
    --_group-fill:    var(--bg);
    --_group-hdr:     color-mix(in srgb, var(--fg) 5%, var(--bg));
    --_inner-stroke:  color-mix(in srgb, var(--fg) 12%, var(--bg));
    --_key-badge:     color-mix(in srgb, var(--fg) 10%, var(--bg));
  }
</style>
<defs>
  <marker id="arrowhead" markerWidth="8" markerHeight="4.8" refX="8" refY="2.4" orient="auto">
    <polygon points="0 0, 8 2.4, 0 4.8" fill="var(--_arrow)" />
  </marker>
  <marker id="arrowhead-start" markerWidth="8" markerHeight="4.8" refX="0" refY="2.4" orient="auto-start-reverse">
    <polygon points="8 0, 0 2.4, 8 4.8" fill="var(--_arrow)" />
  </marker>
</defs>
<rect x="970.6750000000002" y="40" width="546.6999999999998" height="112" rx="0" ry="0" fill="var(--_group-fill)" stroke="var(--_node-stroke)" stroke-width="1" />
<rect x="970.6750000000002" y="40" width="546.6999999999998" height="28" rx="0" ry="0" fill="var(--_group-hdr)" stroke="var(--_node-stroke)" stroke-width="1" />
<text x="982.6750000000002" y="54" dy="0.35em" font-size="12" font-weight="600" fill="var(--_text-sec)">&quot;Client&quot;</text>
<rect x="40" y="196" width="1658.6875000000002" height="268" rx="0" ry="0" fill="var(--_group-fill)" stroke="var(--_node-stroke)" stroke-width="1" />
<rect x="40" y="196" width="1658.6875000000002" height="28" rx="0" ry="0" fill="var(--_group-hdr)" stroke="var(--_node-stroke)" stroke-width="1" />
<text x="52" y="210" dy="0.35em" font-size="12" font-weight="600" fill="var(--_text-sec)">&quot;Jarspect (Axum server)&quot;</text>
<rect x="53.299999999999955" y="1305" width="1459.19" height="123" rx="0" ry="0" fill="var(--_group-fill)" stroke="var(--_node-stroke)" stroke-width="1" />
<rect x="53.299999999999955" y="1305" width="1459.19" height="28" rx="0" ry="0" fill="var(--_group-hdr)" stroke="var(--_node-stroke)" stroke-width="1" />
<text x="65.29999999999995" y="1319" dy="0.35em" font-size="12" font-weight="600" fill="var(--_text-sec)">&quot;Local storage&quot;</text>
<rect x="757.36" y="508" width="421.32500000000005" height="736" rx="0" ry="0" fill="var(--_group-fill)" stroke="var(--_node-stroke)" stroke-width="1" />
<rect x="757.36" y="508" width="421.32500000000005" height="28" rx="0" ry="0" fill="var(--_group-hdr)" stroke="var(--_node-stroke)" stroke-width="1" />
<text x="769.36" y="522" dy="0.35em" font-size="12" font-weight="600" fill="var(--_text-sec)">&quot;Scan pipeline&quot;</text>
<rect x="204.95999999999998" y="820" width="532.4000000000001" height="112" rx="0" ry="0" fill="var(--_group-fill)" stroke="var(--_node-stroke)" stroke-width="1" />
<rect x="204.95999999999998" y="820" width="532.4000000000001" height="28" rx="0" ry="0" fill="var(--_group-hdr)" stroke="var(--_node-stroke)" stroke-width="1" />
<text x="216.95999999999998" y="834" dy="0.35em" font-size="12" font-weight="600" fill="var(--_text-sec)">&quot;Signature data&quot;</text>
<polyline points="1130.225,132 1130.225,270 1224.45,270" fill="none" stroke="var(--_line)" stroke-width="0.75" marker-end="url(#arrowhead)" />
<polyline points="1393.5750000000003,132 1393.5750000000003,270 1299.3500000000001,270" fill="none" stroke="var(--_line)" stroke-width="0.75" marker-end="url(#arrowhead)" />
<polyline points="1261.9,288 1261.9,308 1621.3625000000002,308 1621.3625000000002,408" fill="none" stroke="var(--_line)" stroke-width="0.75" marker-end="url(#arrowhead)" />
<polyline points="1261.9,288 1261.9,308 1433.0875,308 1433.0875,408" fill="none" stroke="var(--_line)" stroke-width="0.75" marker-end="url(#arrowhead)" />
<polyline points="1261.9,288 1261.9,308 1092.6875,308 1092.6875,408" fill="none" stroke="var(--_line)" stroke-width="0.75" marker-end="url(#arrowhead)" />
<polyline points="1261.9,288 1261.9,308 149.49999999999994,308 149.49999999999994,408" fill="none" stroke="var(--_line)" stroke-width="0.75" marker-end="url(#arrowhead)" />
<polyline points="1433.0875,444 1433.0875,1384.5 1490.4900000000002,1384.5" fill="none" stroke="var(--_line)" stroke-width="0.75" marker-end="url(#arrowhead)" />
<polyline points="1092.6875,444 1092.6875,464 1225.565,464 1225.565,1384.5 1279.7400000000002,1384.5" fill="none" stroke="var(--_line)" stroke-width="0.75" marker-end="url(#arrowhead)" />
<polyline points="1092.6875,444 1092.6875,464 959.8100000000001,464 959.8100000000001,564" fill="none" stroke="var(--_line)" stroke-width="0.75" marker-end="url(#arrowhead)" />
<polyline points="959.8100000000001,600 959.8100000000001,720" fill="none" stroke="var(--_line)" stroke-width="0.75" marker-end="url(#arrowhead)" />
<polyline points="959.8100000000001,756 959.8100000000001,776 979.8100000000001,776 979.8100000000001,876" fill="none" stroke="var(--_line)" stroke-width="0.75" marker-end="url(#arrowhead)" />
<polyline points="979.8100000000001,912 979.8100000000001,1032" fill="none" stroke="var(--_line)" stroke-width="0.75" marker-end="url(#arrowhead)" />
<polyline points="979.8100000000001,1068 979.8100000000001,1188" fill="none" stroke="var(--_line)" stroke-width="0.75" marker-end="url(#arrowhead)" />
<polyline points="959.8100000000001,756 959.8100000000001,894 715.36,894" fill="none" stroke="var(--_line)" stroke-width="0.75" marker-end="url(#arrowhead)" />
<polyline points="959.8100000000001,756 959.8100000000001,776 858.585,776 858.585,894 437.71,894" fill="none" stroke="var(--_line)" stroke-width="0.75" marker-end="url(#arrowhead)" />
<polyline points="979.8100000000001,1224 979.8100000000001,1384.5 673.605,1384.5" fill="none" stroke="var(--_line)" stroke-width="0.75" marker-end="url(#arrowhead)" />
<polyline points="149.49999999999994,444 149.49999999999994,1384.5 412.80500000000006,1384.5" fill="none" stroke="var(--_line)" stroke-width="0.75" marker-end="url(#arrowhead)" />
<rect x="1399.3475" y="880.5" width="67.48" height="27" rx="4" ry="4" fill="var(--bg)" stroke="var(--_inner-stroke)" stroke-width="0.5" />
<text x="1433.0875" y="894" text-anchor="middle" dy="0.35em" font-size="11" font-weight="400" fill="var(--_text-muted)">write jar</text>
<rect x="1194.685" y="880.5" width="61.760000000000005" height="27" rx="4" ry="4" fill="var(--bg)" stroke="var(--_inner-stroke)" stroke-width="0.5" />
<text x="1225.565" y="894" text-anchor="middle" dy="0.35em" font-size="11" font-weight="400" fill="var(--_text-muted)">read jar</text>
<rect x="931.7700000000001" y="1279" width="96.08" height="27" rx="4" ry="4" fill="var(--bg)" stroke="var(--_inner-stroke)" stroke-width="0.5" />
<text x="979.8100000000001" y="1292.5" text-anchor="middle" dy="0.35em" font-size="11" font-weight="400" fill="var(--_text-muted)">persist result</text>
<rect x="110.03999999999994" y="880.5" width="78.92" height="27" rx="4" ry="4" fill="var(--bg)" stroke="var(--_inner-stroke)" stroke-width="0.5" />
<text x="149.49999999999994" y="894" text-anchor="middle" dy="0.35em" font-size="11" font-weight="400" fill="var(--_text-muted)">read result</text>
<rect x="992.675" y="96" width="275.1" height="36" rx="0" ry="0" fill="var(--_node-fill)" stroke="var(--_node-stroke)" stroke-width="0.75" />
<rect x="1291.7750000000003" y="96" width="203.60000000000002" height="36" rx="0" ry="0" fill="var(--_node-fill)" stroke="var(--_node-stroke)" stroke-width="0.75" />
<rect x="1224.45" y="252" width="74.9" height="36" rx="0" ry="0" fill="var(--_node-fill)" stroke="var(--_node-stroke)" stroke-width="0.75" />
<rect x="1566.0375000000001" y="408" width="110.65" height="36" rx="0" ry="0" fill="var(--_node-fill)" stroke="var(--_node-stroke)" stroke-width="0.75" />
<rect x="1324.1375" y="408" width="217.9" height="36" rx="0" ry="0" fill="var(--_node-fill)" stroke="var(--_node-stroke)" stroke-width="0.75" />
<rect x="887.2125" y="408" width="410.95000000000005" height="36" rx="0" ry="0" fill="var(--_node-fill)" stroke="var(--_node-stroke)" stroke-width="0.75" />
<rect x="61.99999999999994" y="408" width="175" height="36" rx="0" ry="0" fill="var(--_node-fill)" stroke="var(--_node-stroke)" stroke-width="0.75" />
<rect x="1279.7400000000002" y="1368" width="210.75000000000003" height="33" fill="var(--_node-fill)" stroke="none" />
<line x1="1279.7400000000002" y1="1368" x2="1279.7400000000002" y2="1401" stroke="var(--_node-stroke)" stroke-width="0.75" />
<line x1="1490.4900000000002" y1="1368" x2="1490.4900000000002" y2="1401" stroke="var(--_node-stroke)" stroke-width="0.75" />
<ellipse cx="1385.1150000000002" cy="1401" rx="105.37500000000001" ry="7" fill="var(--_node-fill)" stroke="var(--_node-stroke)" stroke-width="0.75" />
<ellipse cx="1385.1150000000002" cy="1368" rx="105.37500000000001" ry="7" fill="var(--_node-fill)" stroke="var(--_node-stroke)" stroke-width="0.75" />
<rect x="412.80500000000006" y="1368" width="260.8" height="33" fill="var(--_node-fill)" stroke="none" />
<line x1="412.80500000000006" y1="1368" x2="412.80500000000006" y2="1401" stroke="var(--_node-stroke)" stroke-width="0.75" />
<line x1="673.605" y1="1368" x2="673.605" y2="1401" stroke="var(--_node-stroke)" stroke-width="0.75" />
<ellipse cx="543.205" cy="1401" rx="130.4" ry="7" fill="var(--_node-fill)" stroke="var(--_node-stroke)" stroke-width="0.75" />
<ellipse cx="543.205" cy="1368" rx="130.4" ry="7" fill="var(--_node-fill)" stroke="var(--_node-stroke)" stroke-width="0.75" />
<rect x="847.2850000000001" y="564" width="225.05" height="36" rx="0" ry="0" fill="var(--_node-fill)" stroke="var(--_node-stroke)" stroke-width="0.75" />
<rect x="779.36" y="720" width="360.90000000000003" height="36" rx="0" ry="0" fill="var(--_node-fill)" stroke="var(--_node-stroke)" stroke-width="0.75" />
<rect x="802.9350000000001" y="876" width="353.75" height="36" rx="0" ry="0" fill="var(--_node-fill)" stroke="var(--_node-stroke)" stroke-width="0.75" />
<rect x="831.5350000000001" y="1032" width="296.55" height="36" rx="0" ry="0" fill="var(--_node-fill)" stroke="var(--_node-stroke)" stroke-width="0.75" />
<rect x="817.235" y="1188" width="325.15000000000003" height="36" rx="0" ry="0" fill="var(--_node-fill)" stroke="var(--_node-stroke)" stroke-width="0.75" />
<rect x="461.71" y="876" width="253.65" height="36" rx="0" ry="0" fill="var(--_node-fill)" stroke="var(--_node-stroke)" stroke-width="0.75" />
<rect x="226.95999999999998" y="876" width="210.75000000000003" height="36" rx="0" ry="0" fill="var(--_node-fill)" stroke="var(--_node-stroke)" stroke-width="0.75" />
<text x="1130.225" y="114" text-anchor="middle" dy="0.35em" font-size="13" font-weight="500" fill="var(--_text)">Browser UI\nhttp://localhost:8000/</text>
<text x="1393.5750000000003" y="114" text-anchor="middle" dy="0.35em" font-size="13" font-weight="500" fill="var(--_text)">bash scripts/demo_run.sh</text>
<text x="1261.9" y="270" text-anchor="middle" dy="0.35em" font-size="13" font-weight="500" fill="var(--_text)">Router</text>
<text x="1621.3625000000002" y="426" text-anchor="middle" dy="0.35em" font-size="13" font-weight="500" fill="var(--_text)">GET /health</text>
<text x="1433.0875" y="426" text-anchor="middle" dy="0.35em" font-size="13" font-weight="500" fill="var(--_text)">POST /upload\n-&gt; upload_id</text>
<text x="1092.6875" y="426" text-anchor="middle" dy="0.35em" font-size="13" font-weight="500" fill="var(--_text)">POST /scan\n(upload_id + author)\n-&gt; scan_id + result</text>
<text x="149.49999999999994" y="426" text-anchor="middle" dy="0.35em" font-size="13" font-weight="500" fill="var(--_text)">GET /scans/{scan_id}</text>
<text x="1385.1150000000002" y="1384.5" text-anchor="middle" dy="0.35em" font-size="13" font-weight="500" fill="var(--_text)">.local-data/uploads/*.jar</text>
<text x="543.205" y="1384.5" text-anchor="middle" dy="0.35em" font-size="13" font-weight="500" fill="var(--_text)">.local-data/scans/{scan_id}.json</text>
<text x="959.8100000000001" y="582" text-anchor="middle" dy="0.35em" font-size="13" font-weight="500" fill="var(--_text)">Intake\n(unzip + enumerate)</text>
<text x="959.8100000000001" y="738" text-anchor="middle" dy="0.35em" font-size="13" font-weight="500" fill="var(--_text)">Static analysis\n(regex + signatures + YARA-X)</text>
<text x="979.8100000000001" y="894" text-anchor="middle" dy="0.35em" font-size="13" font-weight="500" fill="var(--_text)">Behavior prediction\n(URLs/files/persistence)</text>
<text x="979.8100000000001" y="1050" text-anchor="middle" dy="0.35em" font-size="13" font-weight="500" fill="var(--_text)">Reputation scoring\n(author metadata)</text>
<text x="979.8100000000001" y="1206" text-anchor="middle" dy="0.35em" font-size="13" font-weight="500" fill="var(--_text)">Verdict\n(risk tier + score + indicators)</text>
<text x="588.535" y="894" text-anchor="middle" dy="0.35em" font-size="13" font-weight="500" fill="var(--_text)">data/signatures/signatures.json</text>
<text x="332.335" y="894" text-anchor="middle" dy="0.35em" font-size="13" font-weight="500" fill="var(--_text)">data/signatures/rules.yar</text>
</svg>