<svg xmlns="http://www.w3.org/2000/svg" viewBox="0 0 3401.5275 1780" width="3401.5275" height="1780" style="--bg:#0d1117;--fg:#e6edf3;--line:#3d444d;--accent:#4493f8;--muted:#9198a1;background:var(--bg)">
<style>
  @import url('https://fonts.googleapis.com/css2?family=Inter:wght@400;500;600;700&amp;display=swap');
  text { font-family: 'Inter', system-ui, sans-serif; }
  svg {
    /* Derived from --bg and --fg (overridable via --line, --accent, etc.) */
    --_text:          var(--fg);
    --_text-sec:      var(--muted, color-mix(in srgb, var(--fg) 60%, var(--bg)));
    --_text-muted:    var(--muted, color-mix(in srgb, var(--fg) 40%, var(--bg)));
    --_text-faint:    color-mix(in srgb, var(--fg) 25%, var(--bg));
    --_line:          var(--line, color-mix(in srgb, var(--fg) 30%, var(--bg)));
    --_arrow:         var(--accent, color-mix(in srgb, var(--fg) 50%, var(--bg)));
    --_node-fill:     var(--surface, color-mix(in srgb, var(--fg) 3%, var(--bg)));
    --_node-stroke:   var(--border, color-mix(in srgb, var(--fg) 20%, var(--bg)));
    --_group-fill:    var(--bg);
    --_group-hdr:     color-mix(in srgb, var(--fg) 5%, var(--bg));
    --_inner-stroke:  color-mix(in srgb, var(--fg) 12%, var(--bg));
    --_key-badge:     color-mix(in srgb, var(--fg) 10%, var(--bg));
  }
</style>
<defs>
  <marker id="arrowhead" markerWidth="8" markerHeight="4.8" refX="8" refY="2.4" orient="auto">
    <polygon points="0 0, 8 2.4, 0 4.8" fill="var(--_arrow)" />
  </marker>
  <marker id="arrowhead-start" markerWidth="8" markerHeight="4.8" refX="0" refY="2.4" orient="auto-start-reverse">
    <polygon points="8 0, 0 2.4, 8 4.8" fill="var(--_arrow)" />
  </marker>
</defs>
<rect x="2192.5400000000004" y="40" width="553.85" height="112" rx="0" ry="0" fill="var(--_group-fill)" stroke="var(--_node-stroke)" stroke-width="1" />
<rect x="2192.5400000000004" y="40" width="553.85" height="28" rx="0" ry="0" fill="var(--_group-hdr)" stroke="var(--_node-stroke)" stroke-width="1" />
<text x="2204.5400000000004" y="54" dy="0.35em" font-size="12" font-weight="600" fill="var(--_text-sec)">&quot;Client&quot;</text>
<rect x="40" y="196" width="3321.5275" height="268" rx="0" ry="0" fill="var(--_group-fill)" stroke="var(--_node-stroke)" stroke-width="1" />
<rect x="40" y="196" width="3321.5275" height="28" rx="0" ry="0" fill="var(--_group-hdr)" stroke="var(--_node-stroke)" stroke-width="1" />
<text x="52" y="210" dy="0.35em" font-size="12" font-weight="600" fill="var(--_text-sec)">&quot;Jarspect (Axum server · src/main.rs)&quot;</text>
<rect x="47.9375" y="1617" width="3137.0550000000003" height="123" rx="0" ry="0" fill="var(--_group-fill)" stroke="var(--_node-stroke)" stroke-width="1" />
<rect x="47.9375" y="1617" width="3137.0550000000003" height="28" rx="0" ry="0" fill="var(--_group-hdr)" stroke="var(--_node-stroke)" stroke-width="1" />
<text x="59.9375" y="1631" dy="0.35em" font-size="12" font-weight="600" fill="var(--_text-sec)">&quot;Local storage&quot;</text>
<rect x="1036.5000000000005" y="508" width="1844.35" height="1048" rx="0" ry="0" fill="var(--_group-fill)" stroke="var(--_node-stroke)" stroke-width="1" />
<rect x="1036.5000000000005" y="508" width="1844.35" height="28" rx="0" ry="0" fill="var(--_group-hdr)" stroke="var(--_node-stroke)" stroke-width="1" />
<text x="1048.5000000000005" y="522" dy="0.35em" font-size="12" font-weight="600" fill="var(--_text-sec)">&quot;Scan pipeline (src/lib.rs · run_scan)&quot;</text>
<rect x="169.5" y="820" width="847" height="112" rx="0" ry="0" fill="var(--_group-fill)" stroke="var(--_node-stroke)" stroke-width="1" />
<rect x="169.5" y="820" width="847" height="28" rx="0" ry="0" fill="var(--_group-hdr)" stroke="var(--_node-stroke)" stroke-width="1" />
<text x="181.5" y="834" dy="0.35em" font-size="12" font-weight="600" fill="var(--_text-sec)">&quot;Signature data&quot;</text>
<polyline points="2355.665000000001,132 2355.665000000001,270 2451.6775000000007,270" fill="none" stroke="var(--_line)" stroke-width="0.75" marker-end="url(#arrowhead)" />
<polyline points="2622.5900000000006,132 2622.5900000000006,270 2526.5775000000003,270" fill="none" stroke="var(--_line)" stroke-width="0.75" marker-end="url(#arrowhead)" />
<polyline points="2489.1275000000005,288 2489.1275000000005,308 3284.2025000000003,308 3284.2025000000003,408" fill="none" stroke="var(--_line)" stroke-width="0.75" marker-end="url(#arrowhead)" />
<polyline points="2489.1275000000005,288 2489.1275000000005,308 3095.9275000000002,308 3095.9275000000002,408" fill="none" stroke="var(--_line)" stroke-width="0.75" marker-end="url(#arrowhead)" />
<polyline points="2489.1275000000005,288 2489.1275000000005,308 2336.0025000000005,308 2336.0025000000005,408" fill="none" stroke="var(--_line)" stroke-width="0.75" marker-end="url(#arrowhead)" />
<polyline points="2489.1275000000005,288 2489.1275000000005,308 149.5,308 149.5,408" fill="none" stroke="var(--_line)" stroke-width="0.75" marker-end="url(#arrowhead)" />
<polyline points="3095.9275000000002,444 3095.9275000000002,1696.5 3162.9925000000003,1696.5" fill="none" stroke="var(--_line)" stroke-width="0.75" marker-end="url(#arrowhead)" />
<polyline points="2336.0025000000005,444 2336.0025000000005,464 2927.7300000000005,464 2927.7300000000005,1696.5 2952.2425000000003,1696.5" fill="none" stroke="var(--_line)" stroke-width="0.75" marker-end="url(#arrowhead)" />
<polyline points="2336.0025000000005,444 2336.0025000000005,464 1900.9125000000004,464 1900.9125000000004,564" fill="none" stroke="var(--_line)" stroke-width="0.75" marker-end="url(#arrowhead)" />
<polyline points="1900.9125000000004,600 1900.9125000000004,620 2450.2625000000007,620 2450.2625000000007,720" fill="none" stroke="var(--_line)" stroke-width="0.75" marker-end="url(#arrowhead)" />
<polyline points="2450.2625000000007,756 2450.2625000000007,776 2587.2375,776 2587.2375,876" fill="none" stroke="var(--_line)" stroke-width="0.75" marker-end="url(#arrowhead)" />
<polyline points="1900.9125000000004,600 1900.9125000000004,620 1893.7625000000005,620 1893.7625000000005,720" fill="none" stroke="var(--_line)" stroke-width="0.75" marker-end="url(#arrowhead)" />
<polyline points="1900.9125000000004,600 1900.9125000000004,620 1330.1125000000004,620 1330.1125000000004,720" fill="none" stroke="var(--_line)" stroke-width="0.75" marker-end="url(#arrowhead)" />
<polyline points="2450.2625000000007,756 2450.2625000000007,776 2192.0125000000007,776 2192.0125000000007,1050 2184.0125000000007,1050" fill="none" stroke="var(--_line)" stroke-width="0.75" marker-end="url(#arrowhead)" />
<polyline points="2587.2375,912 2587.2375,1050 2716.5125000000007,1050" fill="none" stroke="var(--_line)" stroke-width="0.75" marker-end="url(#arrowhead)" />
<polyline points="2450.2625000000007,1068 2450.2625000000007,1206 2202.9125000000004,1206" fill="none" stroke="var(--_line)" stroke-width="0.75" marker-end="url(#arrowhead)" />
<polyline points="1893.7625000000005,756 1893.7625000000005,776 1960.9625,776 1960.9625,1206 2202.9125000000004,1206" fill="none" stroke="var(--_line)" stroke-width="0.75" marker-end="url(#arrowhead)" />
<polyline points="1330.1125000000004,756 1330.1125000000004,1206 1677.5625000000002,1206" fill="none" stroke="var(--_line)" stroke-width="0.75" marker-end="url(#arrowhead)" />
<polyline points="1940.2375000000002,1224 1940.2375000000002,1244 2572.9375,1244 2572.9375,1344" fill="none" stroke="var(--_line)" stroke-width="0.75" marker-end="url(#arrowhead)" />
<polyline points="1940.2375000000002,1224 1940.2375000000002,1244 1203.1375000000003,1244 1203.1375000000003,1518 1513.0500000000002,1518" fill="none" stroke="var(--_line)" stroke-width="0.75" marker-end="url(#arrowhead)" />
<polyline points="2572.9375,1380 2572.9375,1518 2095.6000000000004,1518" fill="none" stroke="var(--_line)" stroke-width="0.75" marker-end="url(#arrowhead)" />
<polyline points="1772.1500000000003,1380 1772.1500000000003,1518 1513.0500000000002,1518" fill="none" stroke="var(--_line)" stroke-width="0.75" marker-end="url(#arrowhead)" />
<polyline points="1893.7625000000005,756 1893.7625000000005,776 1900.9125000000004,776 1900.9125000000004,894 994.5,894" fill="none" stroke="var(--_line)" stroke-width="0.75" marker-end="url(#arrowhead)" />
<polyline points="1893.7625000000005,756 1893.7625000000005,776 1619.0875000000005,776 1619.0875000000005,894 581,894" fill="none" stroke="var(--_line)" stroke-width="0.75" marker-end="url(#arrowhead)" />
<polyline points="1804.3250000000003,1536 1804.3250000000003,1696.5 874.6750000000005,1696.5" fill="none" stroke="var(--_line)" stroke-width="0.75" marker-end="url(#arrowhead)" />
<polyline points="149.5,444 149.5,1696.5 613.8750000000006,1696.5" fill="none" stroke="var(--_line)" stroke-width="0.75" marker-end="url(#arrowhead)" />
<rect x="3062.1875000000005" y="1036.5" width="67.48" height="27" rx="4" ry="4" fill="var(--bg)" stroke="var(--_inner-stroke)" stroke-width="0.5" />
<text x="3095.9275000000002" y="1050" text-anchor="middle" dy="0.35em" font-size="11" font-weight="400" fill="var(--_text-muted)">write jar</text>
<rect x="2896.8500000000004" y="1036.5" width="61.760000000000005" height="27" rx="4" ry="4" fill="var(--bg)" stroke="var(--_inner-stroke)" stroke-width="0.5" />
<text x="2927.7300000000005" y="1050" text-anchor="middle" dy="0.35em" font-size="11" font-weight="400" fill="var(--_text-muted)">read jar</text>
<rect x="1756.2850000000003" y="1591" width="96.08" height="27" rx="4" ry="4" fill="var(--bg)" stroke="var(--_inner-stroke)" stroke-width="0.5" />
<text x="1804.3250000000003" y="1604.5" text-anchor="middle" dy="0.35em" font-size="11" font-weight="400" fill="var(--_text-muted)">persist result</text>
<rect x="110.03999999999999" y="1036.5" width="78.92" height="27" rx="4" ry="4" fill="var(--bg)" stroke="var(--_inner-stroke)" stroke-width="0.5" />
<text x="149.5" y="1050" text-anchor="middle" dy="0.35em" font-size="11" font-weight="400" fill="var(--_text-muted)">read result</text>
<rect x="2214.540000000001" y="96" width="282.25" height="36" rx="0" ry="0" fill="var(--_node-fill)" stroke="var(--_node-stroke)" stroke-width="0.75" />
<rect x="2520.7900000000004" y="96" width="203.60000000000002" height="36" rx="0" ry="0" fill="var(--_node-fill)" stroke="var(--_node-stroke)" stroke-width="0.75" />
<rect x="2451.6775000000007" y="252" width="74.9" height="36" rx="0" ry="0" fill="var(--_node-fill)" stroke="var(--_node-stroke)" stroke-width="0.75" />
<rect x="3228.8775000000005" y="408" width="110.65" height="36" rx="0" ry="0" fill="var(--_node-fill)" stroke="var(--_node-stroke)" stroke-width="0.75" />
<rect x="2986.9775000000004" y="408" width="217.9" height="36" rx="0" ry="0" fill="var(--_node-fill)" stroke="var(--_node-stroke)" stroke-width="0.75" />
<rect x="2209.1775000000007" y="408" width="253.65" height="36" rx="0" ry="0" fill="var(--_node-fill)" stroke="var(--_node-stroke)" stroke-width="0.75" />
<rect x="62" y="408" width="175" height="36" rx="0" ry="0" fill="var(--_node-fill)" stroke="var(--_node-stroke)" stroke-width="0.75" />
<rect x="2952.2425000000003" y="1680" width="210.75000000000003" height="33" fill="var(--_node-fill)" stroke="none" />
<line x1="2952.2425000000003" y1="1680" x2="2952.2425000000003" y2="1713" stroke="var(--_node-stroke)" stroke-width="0.75" />
<line x1="3162.9925000000003" y1="1680" x2="3162.9925000000003" y2="1713" stroke="var(--_node-stroke)" stroke-width="0.75" />
<ellipse cx="3057.6175000000003" cy="1713" rx="105.37500000000001" ry="7" fill="var(--_node-fill)" stroke="var(--_node-stroke)" stroke-width="0.75" />
<ellipse cx="3057.6175000000003" cy="1680" rx="105.37500000000001" ry="7" fill="var(--_node-fill)" stroke="var(--_node-stroke)" stroke-width="0.75" />
<rect x="613.8750000000006" y="1680" width="260.8" height="33" fill="var(--_node-fill)" stroke="none" />
<line x1="613.8750000000006" y1="1680" x2="613.8750000000006" y2="1713" stroke="var(--_node-stroke)" stroke-width="0.75" />
<line x1="874.6750000000006" y1="1680" x2="874.6750000000006" y2="1713" stroke="var(--_node-stroke)" stroke-width="0.75" />
<ellipse cx="744.2750000000005" cy="1713" rx="130.4" ry="7" fill="var(--_node-fill)" stroke="var(--_node-stroke)" stroke-width="0.75" />
<ellipse cx="744.2750000000005" cy="1680" rx="130.4" ry="7" fill="var(--_node-fill)" stroke="var(--_node-stroke)" stroke-width="0.75" />
<rect x="1659.6875000000005" y="564" width="482.45000000000005" height="36" rx="0" ry="0" fill="var(--_node-fill)" stroke="var(--_node-stroke)" stroke-width="0.75" />
<rect x="2191.162500000001" y="720" width="518.2" height="36" rx="0" ry="0" fill="var(--_node-fill)" stroke="var(--_node-stroke)" stroke-width="0.75" />
<rect x="2335.2875000000004" y="876" width="503.90000000000003" height="36" rx="0" ry="0" fill="var(--_node-fill)" stroke="var(--_node-stroke)" stroke-width="0.75" />
<rect x="1620.3625000000004" y="720" width="546.8000000000001" height="36" rx="0" ry="0" fill="var(--_node-fill)" stroke="var(--_node-stroke)" stroke-width="0.75" />
<rect x="1063.8625000000004" y="720" width="532.5" height="36" rx="0" ry="0" fill="var(--_node-fill)" stroke="var(--_node-stroke)" stroke-width="0.75" />
<rect x="2184.0125000000007" y="1032" width="532.5" height="36" rx="0" ry="0" fill="var(--_node-fill)" stroke="var(--_node-stroke)" stroke-width="0.75" />
<rect x="1677.5625000000002" y="1188" width="525.35" height="36" rx="0" ry="0" fill="var(--_node-fill)" stroke="var(--_node-stroke)" stroke-width="0.75" />
<rect x="2292.3875" y="1344" width="561.1" height="36" rx="0" ry="0" fill="var(--_node-fill)" stroke="var(--_node-stroke)" stroke-width="0.75" />
<rect x="1591.7000000000003" y="1344" width="360.90000000000003" height="36" rx="0" ry="0" fill="var(--_node-fill)" stroke="var(--_node-stroke)" stroke-width="0.75" />
<rect x="1513.0500000000002" y="1500" width="582.5500000000001" height="36" rx="0" ry="0" fill="var(--_node-fill)" stroke="var(--_node-stroke)" stroke-width="0.75" />
<rect x="605" y="876" width="389.50000000000006" height="36" rx="0" ry="0" fill="var(--_node-fill)" stroke="var(--_node-stroke)" stroke-width="0.75" />
<rect x="191.49999999999997" y="876" width="389.50000000000006" height="36" rx="0" ry="0" fill="var(--_node-fill)" stroke="var(--_node-stroke)" stroke-width="0.75" />
<text x="2355.665000000001" y="114" text-anchor="middle" dy="0.35em" font-size="13" font-weight="500" fill="var(--_text)">Browser UI\nhttp://localhost:18000/</text>
<text x="2622.5900000000006" y="114" text-anchor="middle" dy="0.35em" font-size="13" font-weight="500" fill="var(--_text)">bash scripts/demo_run.sh</text>
<text x="2489.1275000000005" y="270" text-anchor="middle" dy="0.35em" font-size="13" font-weight="500" fill="var(--_text)">Router</text>
<text x="3284.2025000000003" y="426" text-anchor="middle" dy="0.35em" font-size="13" font-weight="500" fill="var(--_text)">GET /health</text>
<text x="3095.9275000000002" y="426" text-anchor="middle" dy="0.35em" font-size="13" font-weight="500" fill="var(--_text)">POST /upload\n-&gt; upload_id</text>
<text x="2336.0025000000005" y="426" text-anchor="middle" dy="0.35em" font-size="13" font-weight="500" fill="var(--_text)">POST /scan\n-&gt; scan_id + result</text>
<text x="149.5" y="426" text-anchor="middle" dy="0.35em" font-size="13" font-weight="500" fill="var(--_text)">GET /scans/{scan_id}</text>
<text x="3057.6175000000003" y="1696.5" text-anchor="middle" dy="0.35em" font-size="13" font-weight="500" fill="var(--_text)">.local-data/uploads/*.jar</text>
<text x="744.2750000000005" y="1696.5" text-anchor="middle" dy="0.35em" font-size="13" font-weight="500" fill="var(--_text)">.local-data/scans/{scan_id}.json</text>
<text x="1900.9125000000004" y="582" text-anchor="middle" dy="0.35em" font-size="13" font-weight="500" fill="var(--_text)">Archive traversal\nrecursive jar-in-jar\nbudget-gated inflation</text>
<text x="2450.2625000000007" y="738" text-anchor="middle" dy="0.35em" font-size="13" font-weight="500" fill="var(--_text)">Bytecode evidence\ncafebabe class parse\nCP strings + invoke resolve</text>
<text x="2587.2375" y="894" text-anchor="middle" dy="0.35em" font-size="13" font-weight="500" fill="var(--_text)">Byte-array strings\nnew String·new byte·...·\nopcode state machine</text>
<text x="1893.7625000000005" y="738" text-anchor="middle" dy="0.35em" font-size="13" font-weight="500" fill="var(--_text)">YARA per-entry\ninflate + scan individually\nseverity from rule metadata</text>
<text x="1330.1125000000004" y="738" text-anchor="middle" dy="0.35em" font-size="13" font-weight="500" fill="var(--_text)">Metadata checks\nfabric.mod.json / mods.toml\nplugin.yml / MANIFEST.MF</text>
<text x="2450.2625000000007" y="1050" text-anchor="middle" dy="0.35em" font-size="13" font-weight="500" fill="var(--_text)">8 Capability detectors\nDETC-01..08\nEvidenceIndex + correlation gates</text>
<text x="1940.2375000000002" y="1206" text-anchor="middle" dy="0.35em" font-size="13" font-weight="500" fill="var(--_text)">Scoring engine\ndedup + diminishing returns\nsynergy bonuses -&gt; 0-100</text>
<text x="2572.9375" y="1362" text-anchor="middle" dy="0.35em" font-size="13" font-weight="500" fill="var(--_text)">Behavior prediction\nevidence-derived URLs\ncommands / paths / persistence</text>
<text x="1772.1500000000003" y="1362" text-anchor="middle" dy="0.35em" font-size="13" font-weight="500" fill="var(--_text)">Reputation scoring\nauthor metadata · optional</text>
<text x="1804.3250000000003" y="1518" text-anchor="middle" dy="0.35em" font-size="13" font-weight="500" fill="var(--_text)">Verdict synthesis\nrisk_tier · risk_score\nsummary · explanation · indicators</text>
<text x="799.75" y="894" text-anchor="middle" dy="0.35em" font-size="13" font-weight="500" fill="var(--_text)">data/signatures/demo/\nsignatures.json + rules.yar</text>
<text x="386.25" y="894" text-anchor="middle" dy="0.35em" font-size="13" font-weight="500" fill="var(--_text)">data/signatures/prod/\nsignatures.json + rules.yar</text>
</svg>